<?xml version="1.0" encoding="UTF-8" standalone="no"?>
<!DOCTYPE svg PUBLIC "-//W3C//DTD SVG 1.1//EN"
 "http://www.w3.org/Graphics/SVG/1.1/DTD/svg11.dtd">
<!-- Generated by graphviz version 2.30.1 (20130302.2204)
 -->
<!-- Title: G Pages: 1 -->
<svg width="894pt" height="1876pt"
 viewBox="0.00 0.00 894.00 1876.00" xmlns="http://www.w3.org/2000/svg" xmlns:xlink="http://www.w3.org/1999/xlink">
<g id="graph0" class="graph" transform="scale(1 1) rotate(0) translate(4 1872)">
<title>G</title>
<polygon fill="white" stroke="white" points="-4,5 -4,-1872 891,-1872 891,5 -4,5"/>
<g id="clust1" class="cluster"><title>cluster_FurryBear</title>
<path fill="none" stroke="gray" d="M238,-98C238,-98 866,-98 866,-98 872,-98 878,-104 878,-110 878,-110 878,-1767 878,-1767 878,-1773 872,-1779 866,-1779 866,-1779 238,-1779 238,-1779 232,-1779 226,-1773 226,-1767 226,-1767 226,-110 226,-110 226,-104 232,-98 238,-98"/>
<text text-anchor="middle" x="552" y="-1764" font-family="Times,serif" font-size="11.00" fill="gray">FurryBear</text>
</g>
<g id="clust2" class="cluster"><title>cluster_FurryBear\Exception</title>
<path fill="none" stroke="gray" d="M458,-1407C458,-1407 858,-1407 858,-1407 864,-1407 870,-1413 870,-1419 870,-1419 870,-1738 870,-1738 870,-1744 864,-1750 858,-1750 858,-1750 458,-1750 458,-1750 452,-1750 446,-1744 446,-1738 446,-1738 446,-1419 446,-1419 446,-1413 452,-1407 458,-1407"/>
<text text-anchor="middle" x="658" y="-1735" font-family="Times,serif" font-size="11.00" fill="gray">Exception</text>
</g>
<g id="clust3" class="cluster"><title>cluster_FurryBear\Http</title>
<path fill="none" stroke="gray" d="M452,-1289C452,-1289 802,-1289 802,-1289 808,-1289 814,-1295 814,-1301 814,-1301 814,-1387 814,-1387 814,-1393 808,-1399 802,-1399 802,-1399 452,-1399 452,-1399 446,-1399 440,-1393 440,-1387 440,-1387 440,-1301 440,-1301 440,-1295 446,-1289 452,-1289"/>
<text text-anchor="middle" x="627" y="-1384" font-family="Times,serif" font-size="11.00" fill="gray">Http</text>
</g>
<g id="clust4" class="cluster"><title>cluster_FurryBear\Http\Adapter</title>
<path fill="none" stroke="gray" d="M748,-1297C748,-1297 794,-1297 794,-1297 800,-1297 806,-1303 806,-1309 806,-1309 806,-1358 806,-1358 806,-1364 800,-1370 794,-1370 794,-1370 748,-1370 748,-1370 742,-1370 736,-1364 736,-1358 736,-1358 736,-1309 736,-1309 736,-1303 742,-1297 748,-1297"/>
<text text-anchor="middle" x="771" y="-1355" font-family="Times,serif" font-size="11.00" fill="gray">Adapter</text>
</g>
<g id="clust6" class="cluster"><title>cluster_FurryBear\Iterator</title>
<path fill="none" stroke="gray" d="M719,-150C719,-150 823,-150 823,-150 829,-150 835,-156 835,-162 835,-162 835,-248 835,-248 835,-254 829,-260 823,-260 823,-260 719,-260 719,-260 713,-260 707,-254 707,-248 707,-248 707,-162 707,-162 707,-156 713,-150 719,-150"/>
<text text-anchor="middle" x="771" y="-245" font-family="Times,serif" font-size="11.00" fill="gray">Iterator</text>
</g>
<g id="clust7" class="cluster"><title>cluster_FurryBear\Iterator\SunlightFoundation</title>
<path fill="none" stroke="gray" d="M727,-158C727,-158 815,-158 815,-158 821,-158 827,-164 827,-170 827,-170 827,-219 827,-219 827,-225 821,-231 815,-231 815,-231 727,-231 727,-231 721,-231 715,-225 715,-219 715,-219 715,-170 715,-170 715,-164 721,-158 727,-158"/>
<text text-anchor="middle" x="771" y="-216" font-family="Times,serif" font-size="11.00" fill="gray">SunlightFoundation</text>
</g>
<g id="clust9" class="cluster"><title>cluster_FurryBear\Output</title>
<path fill="none" stroke="gray" d="M491,-1117C491,-1117 823,-1117 823,-1117 829,-1117 835,-1123 835,-1129 835,-1129 835,-1269 835,-1269 835,-1275 829,-1281 823,-1281 823,-1281 491,-1281 491,-1281 485,-1281 479,-1275 479,-1269 479,-1269 479,-1129 479,-1129 479,-1123 485,-1117 491,-1117"/>
<text text-anchor="middle" x="657" y="-1266" font-family="Times,serif" font-size="11.00" fill="gray">Output</text>
</g>
<g id="clust10" class="cluster"><title>cluster_FurryBear\Output\Strategy</title>
<path fill="none" stroke="gray" d="M727,-1125C727,-1125 815,-1125 815,-1125 821,-1125 827,-1131 827,-1137 827,-1137 827,-1240 827,-1240 827,-1246 821,-1252 815,-1252 815,-1252 727,-1252 727,-1252 721,-1252 715,-1246 715,-1240 715,-1240 715,-1137 715,-1137 715,-1131 721,-1125 727,-1125"/>
<text text-anchor="middle" x="771" y="-1237" font-family="Times,serif" font-size="11.00" fill="gray">Strategy</text>
</g>
<g id="clust12" class="cluster"><title>cluster_FurryBear\Provider</title>
<path fill="none" stroke="gray" d="M465,-999C465,-999 843,-999 843,-999 849,-999 855,-1005 855,-1011 855,-1011 855,-1097 855,-1097 855,-1103 849,-1109 843,-1109 843,-1109 465,-1109 465,-1109 459,-1109 453,-1103 453,-1097 453,-1097 453,-1011 453,-1011 453,-1005 459,-999 465,-999"/>
<text text-anchor="middle" x="654" y="-1094" font-family="Times,serif" font-size="11.00" fill="gray">Provider</text>
</g>
<g id="clust13" class="cluster"><title>cluster_FurryBear\Provider\Source</title>
<path fill="none" stroke="gray" d="M707,-1007C707,-1007 835,-1007 835,-1007 841,-1007 847,-1013 847,-1019 847,-1019 847,-1068 847,-1068 847,-1074 841,-1080 835,-1080 835,-1080 707,-1080 707,-1080 701,-1080 695,-1074 695,-1068 695,-1068 695,-1019 695,-1019 695,-1013 701,-1007 707,-1007"/>
<text text-anchor="middle" x="771" y="-1065" font-family="Times,serif" font-size="11.00" fill="gray">Source</text>
</g>
<g id="clust15" class="cluster"><title>cluster_FurryBear\Proxy</title>
<path fill="none" stroke="gray" d="M481,-918C481,-918 794,-918 794,-918 800,-918 806,-924 806,-930 806,-930 806,-979 806,-979 806,-985 800,-991 794,-991 794,-991 481,-991 481,-991 475,-991 469,-985 469,-979 469,-979 469,-930 469,-930 469,-924 475,-918 481,-918"/>
<text text-anchor="middle" x="637.5" y="-976" font-family="Times,serif" font-size="11.00" fill="gray">Proxy</text>
</g>
<g id="clust16" class="cluster"><title>cluster_FurryBear\Resource</title>
<path fill="none" stroke="gray" d="M246,-268C246,-268 839,-268 839,-268 845,-268 851,-274 851,-280 851,-280 851,-898 851,-898 851,-904 845,-910 839,-910 839,-910 246,-910 246,-910 240,-910 234,-904 234,-898 234,-898 234,-280 234,-280 234,-274 240,-268 246,-268"/>
<text text-anchor="middle" x="542.5" y="-895" font-family="Times,serif" font-size="11.00" fill="gray">Resource</text>
</g>
<g id="clust17" class="cluster"><title>cluster_FurryBear\Resource\SunlightFoundation</title>
<path fill="none" stroke="gray" d="M478,-322C478,-322 831,-322 831,-322 837,-322 843,-328 843,-334 843,-334 843,-869 843,-869 843,-875 837,-881 831,-881 831,-881 478,-881 478,-881 472,-881 466,-875 466,-869 466,-869 466,-334 466,-334 466,-328 472,-322 478,-322"/>
<text text-anchor="middle" x="654.5" y="-866" font-family="Times,serif" font-size="11.00" fill="gray">SunlightFoundation</text>
</g>
<g id="clust18" class="cluster"><title>cluster_global</title>
<path fill="none" stroke="gray" d="M721,-1787C721,-1787 821,-1787 821,-1787 827,-1787 833,-1793 833,-1799 833,-1799 833,-1848 833,-1848 833,-1854 827,-1860 821,-1860 821,-1860 721,-1860 721,-1860 715,-1860 709,-1854 709,-1848 709,-1848 709,-1799 709,-1799 709,-1793 715,-1787 721,-1787"/>
<text text-anchor="middle" x="771" y="-1845" font-family="Times,serif" font-size="11.00" fill="gray">global</text>
</g>
<!-- \\FurryBear\\Exception\\ExceptionInterface -->
<g id="node1" class="node"><title>\\FurryBear\\Exception\\ExceptionInterface</title>
<g id="a_node1"><a xlink:href="src.FurryBear.Exception.ExceptionInterface.html" xlink:title="ExceptionInterface" target="_parent">
<polygon fill="none" stroke="black" points="589.319,-1586 454.681,-1586 454.681,-1550 589.319,-1550 589.319,-1586"/>
<text text-anchor="middle" x="522" y="-1563.6" font-family="Courier,monospace" font-size="11.00">ExceptionInterface</text>
</a>
</g>
</g>
<!-- \\FurryBear\\Exception\\FileDoesNotExistException -->
<g id="node2" class="node"><title>\\FurryBear\\Exception\\FileDoesNotExistException</title>
<g id="a_node2"><a xlink:href="src.FurryBear.Exception.FileDoesNotExistException.html" xlink:title="FileDoesNotExistException" target="_parent">
<polygon fill="none" stroke="black" points="861.527,-1505 680.473,-1505 680.473,-1469 861.527,-1469 861.527,-1505"/>
<text text-anchor="middle" x="771" y="-1482.6" font-family="Courier,monospace" font-size="11.00">FileDoesNotExistException</text>
</a>
</g>
</g>
<!-- \\RuntimeException -->
<g id="node33" class="node"><title>\\RuntimeException</title>
<ellipse fill="none" stroke="black" cx="522" cy="-72" rx="86.2651" ry="18"/>
<text text-anchor="middle" x="522" y="-66.4" font-family="Times,serif" font-size="14.00" fill="gray">\RuntimeException</text>
</g>
<!-- \\FurryBear\\Exception\\FileDoesNotExistException&#45;&gt;\\RuntimeException -->
<g id="edge1" class="edge"><title>\\FurryBear\\Exception\\FileDoesNotExistException&#45;&gt;\\RuntimeException</title>
<path fill="none" stroke="black" d="M688.984,-1468.82C685.668,-1466.25 682.638,-1463.32 680,-1460 600.933,-1360.44 632.988,-442.661 608,-318 591.57,-236.033 554.494,-144.059 535.194,-99.3512"/>
<polygon fill="none" stroke="black" points="538.341,-97.8117 531.137,-90.0433 531.924,-100.609 538.341,-97.8117"/>
</g>
<!-- \\FurryBear\\Exception\\FileDoesNotExistException&#45;&gt;\\FurryBear\\Exception\\ExceptionInterface -->
<g id="edge19" class="edge"><title>\\FurryBear\\Exception\\FileDoesNotExistException&#45;&gt;\\FurryBear\\Exception\\ExceptionInterface</title>
<path fill="none" stroke="black" stroke-dasharray="1,5" d="M708.414,-1505.12C698.881,-1508.03 689.162,-1511.05 680,-1514 647.953,-1524.31 612.468,-1536.46 583.353,-1546.61"/>
<polygon fill="none" stroke="black" points="582.022,-1543.37 573.738,-1549.98 584.332,-1549.98 582.022,-1543.37"/>
</g>
<!-- \\FurryBear\\Exception\\InvalidJsonException -->
<g id="node3" class="node"><title>\\FurryBear\\Exception\\InvalidJsonException</title>
<g id="a_node3"><a xlink:href="src.FurryBear.Exception.InvalidJsonException.html" xlink:title="InvalidJsonException" target="_parent">
<polygon fill="none" stroke="black" points="845.021,-1451 696.979,-1451 696.979,-1415 845.021,-1415 845.021,-1451"/>
<text text-anchor="middle" x="771" y="-1428.6" font-family="Courier,monospace" font-size="11.00">InvalidJsonException</text>
</a>
</g>
</g>
<!-- \\FurryBear\\Exception\\InvalidJsonException&#45;&gt;\\RuntimeException -->
<g id="edge2" class="edge"><title>\\FurryBear\\Exception\\InvalidJsonException&#45;&gt;\\RuntimeException</title>
<path fill="none" stroke="black" d="M726.166,-1414.89C708.782,-1405.37 690.471,-1391.9 680,-1374 561.235,-1170.97 654.817,-548.505 608,-318 591.361,-236.075 554.378,-144.082 535.146,-99.361"/>
<polygon fill="none" stroke="black" points="538.296,-97.829 531.103,-90.0501 531.875,-100.617 538.296,-97.829"/>
</g>
<!-- \\FurryBear\\Exception\\InvalidJsonException&#45;&gt;\\FurryBear\\Exception\\ExceptionInterface -->
<g id="edge20" class="edge"><title>\\FurryBear\\Exception\\InvalidJsonException&#45;&gt;\\FurryBear\\Exception\\ExceptionInterface</title>
<path fill="none" stroke="black" stroke-dasharray="1,5" d="M701.333,-1451.15C694.007,-1453.81 686.767,-1456.76 680,-1460 632.279,-1482.88 582.897,-1519.33 552.561,-1543.46"/>
<polygon fill="none" stroke="black" points="550.128,-1540.93 544.527,-1549.92 554.514,-1546.38 550.128,-1540.93"/>
</g>
<!-- \\FurryBear\\Exception\\NoOutputException -->
<g id="node4" class="node"><title>\\FurryBear\\Exception\\NoOutputException</title>
<g id="a_node4"><a xlink:href="src.FurryBear.Exception.NoOutputException.html" xlink:title="NoOutputException" target="_parent">
<polygon fill="none" stroke="black" points="835.218,-1721 706.782,-1721 706.782,-1685 835.218,-1685 835.218,-1721"/>
<text text-anchor="middle" x="771" y="-1698.6" font-family="Courier,monospace" font-size="11.00">NoOutputException</text>
</a>
</g>
</g>
<!-- \\FurryBear\\Exception\\NoOutputException&#45;&gt;\\RuntimeException -->
<g id="edge3" class="edge"><title>\\FurryBear\\Exception\\NoOutputException&#45;&gt;\\RuntimeException</title>
<path fill="none" stroke="black" d="M706.768,-1694.81C696.418,-1690.71 686.855,-1684.72 680,-1676 586.625,-1557.2 636.956,-466.3 608,-318 591.98,-235.952 554.721,-144.014 535.289,-99.3325"/>
<polygon fill="none" stroke="black" points="538.429,-97.7783 531.202,-90.0304 532.02,-100.594 538.429,-97.7783"/>
</g>
<!-- \\FurryBear\\Exception\\NoOutputException&#45;&gt;\\FurryBear\\Exception\\ExceptionInterface -->
<g id="edge21" class="edge"><title>\\FurryBear\\Exception\\NoOutputException&#45;&gt;\\FurryBear\\Exception\\ExceptionInterface</title>
<path fill="none" stroke="black" stroke-dasharray="1,5" d="M706.598,-1686.71C697.498,-1683.59 688.385,-1680.02 680,-1676 632.279,-1653.12 582.897,-1616.67 552.561,-1592.54"/>
<polygon fill="none" stroke="black" points="554.514,-1589.62 544.527,-1586.08 550.128,-1595.07 554.514,-1589.62"/>
</g>
<!-- \\FurryBear\\Exception\\NoProviderException -->
<g id="node5" class="node"><title>\\FurryBear\\Exception\\NoProviderException</title>
<g id="a_node5"><a xlink:href="src.FurryBear.Exception.NoProviderException.html" xlink:title="NoProviderException" target="_parent">
<polygon fill="none" stroke="black" points="841.921,-1667 700.079,-1667 700.079,-1631 841.921,-1631 841.921,-1667"/>
<text text-anchor="middle" x="771" y="-1644.6" font-family="Courier,monospace" font-size="11.00">NoProviderException</text>
</a>
</g>
</g>
<!-- \\FurryBear\\Exception\\NoProviderException&#45;&gt;\\RuntimeException -->
<g id="edge4" class="edge"><title>\\FurryBear\\Exception\\NoProviderException&#45;&gt;\\RuntimeException</title>
<path fill="none" stroke="black" d="M700.068,-1637.8C692.343,-1633.93 685.35,-1628.79 680,-1622 590.202,-1508.01 635.964,-460.39 608,-318 591.89,-235.969 554.671,-144.024 535.268,-99.3366"/>
<polygon fill="none" stroke="black" points="538.41,-97.7856 531.188,-90.0332 531.999,-100.597 538.41,-97.7856"/>
</g>
<!-- \\FurryBear\\Exception\\NoProviderException&#45;&gt;\\FurryBear\\Exception\\ExceptionInterface -->
<g id="edge22" class="edge"><title>\\FurryBear\\Exception\\NoProviderException&#45;&gt;\\FurryBear\\Exception\\ExceptionInterface</title>
<path fill="none" stroke="black" stroke-dasharray="1,5" d="M708.414,-1630.88C698.881,-1627.97 689.162,-1624.95 680,-1622 647.953,-1611.69 612.468,-1599.54 583.353,-1589.39"/>
<polygon fill="none" stroke="black" points="584.332,-1586.02 573.738,-1586.02 582.022,-1592.63 584.332,-1586.02"/>
</g>
<!-- \\FurryBear\\Exception\\NoResultException -->
<g id="node6" class="node"><title>\\FurryBear\\Exception\\NoResultException</title>
<g id="a_node6"><a xlink:href="src.FurryBear.Exception.NoResultException.html" xlink:title="NoResultException" target="_parent">
<polygon fill="none" stroke="black" points="835.218,-1613 706.782,-1613 706.782,-1577 835.218,-1577 835.218,-1613"/>
<text text-anchor="middle" x="771" y="-1590.6" font-family="Courier,monospace" font-size="11.00">NoResultException</text>
</a>
</g>
</g>
<!-- \\FurryBear\\Exception\\NoResultException&#45;&gt;\\RuntimeException -->
<g id="edge5" class="edge"><title>\\FurryBear\\Exception\\NoResultException&#45;&gt;\\RuntimeException</title>
<path fill="none" stroke="black" d="M706.8,-1586.79C696.448,-1582.69 686.875,-1576.71 680,-1568 593.779,-1458.82 634.972,-454.479 608,-318 591.792,-235.989 554.617,-144.034 535.246,-99.341"/>
<polygon fill="none" stroke="black" points="538.389,-97.7935 531.173,-90.0362 531.976,-100.601 538.389,-97.7935"/>
</g>
<!-- \\FurryBear\\Exception\\NoResultException&#45;&gt;\\FurryBear\\Exception\\ExceptionInterface -->
<g id="edge23" class="edge"><title>\\FurryBear\\Exception\\NoResultException&#45;&gt;\\FurryBear\\Exception\\ExceptionInterface</title>
<path fill="none" stroke="black" stroke-dasharray="1,5" d="M706.712,-1588.08C674.059,-1584.51 633.97,-1580.13 599.582,-1576.37"/>
<polygon fill="none" stroke="black" points="599.899,-1572.89 589.578,-1575.28 599.138,-1579.84 599.899,-1572.89"/>
</g>
<!-- \\FurryBear\\Exception\\NotImplementedException -->
<g id="node7" class="node"><title>\\FurryBear\\Exception\\NotImplementedException</title>
<g id="a_node7"><a xlink:href="src.FurryBear.Exception.NotImplementedException.html" xlink:title="NotImplementedException" target="_parent">
<polygon fill="none" stroke="black" points="854.825,-1559 687.175,-1559 687.175,-1523 854.825,-1523 854.825,-1559"/>
<text text-anchor="middle" x="771" y="-1536.6" font-family="Courier,monospace" font-size="11.00">NotImplementedException</text>
</a>
</g>
</g>
<!-- \\FurryBear\\Exception\\NotImplementedException&#45;&gt;\\RuntimeException -->
<g id="edge6" class="edge"><title>\\FurryBear\\Exception\\NotImplementedException&#45;&gt;\\RuntimeException</title>
<path fill="none" stroke="black" d="M688.972,-1522.83C685.659,-1520.25 682.633,-1517.33 680,-1514 597.356,-1409.63 633.98,-448.57 608,-318 591.686,-236.01 554.558,-144.046 535.221,-99.3459"/>
<polygon fill="none" stroke="black" points="538.366,-97.8022 531.156,-90.0396 531.951,-100.605 538.366,-97.8022"/>
</g>
<!-- \\FurryBear\\Exception\\NotImplementedException&#45;&gt;\\FurryBear\\Exception\\ExceptionInterface -->
<g id="edge24" class="edge"><title>\\FurryBear\\Exception\\NotImplementedException&#45;&gt;\\FurryBear\\Exception\\ExceptionInterface</title>
<path fill="none" stroke="black" stroke-dasharray="1,5" d="M687.065,-1550.07C658.731,-1553.16 627.193,-1556.61 599.398,-1559.65"/>
<polygon fill="none" stroke="black" points="598.9,-1556.18 589.34,-1560.75 599.661,-1563.14 598.9,-1556.18"/>
</g>
<!-- \\FurryBear\\Http\\Adapter\\Curl -->
<g id="node8" class="node"><title>\\FurryBear\\Http\\Adapter\\Curl</title>
<g id="a_node8"><a xlink:href="src.FurryBear.Http.Adapter.Curl.html" xlink:title="Curl" target="_parent">
<polygon fill="none" stroke="black" points="798,-1341 744,-1341 744,-1305 798,-1305 798,-1341"/>
<text text-anchor="middle" x="771" y="-1318.6" font-family="Courier,monospace" font-size="11.00">Curl</text>
</a>
</g>
</g>
<!-- \\FurryBear\\Http\\HttpAdapterInterface -->
<g id="node9" class="node"><title>\\FurryBear\\Http\\HttpAdapterInterface</title>
<g id="a_node9"><a xlink:href="src.FurryBear.Http.HttpAdapterInterface.html" xlink:title="HttpAdapterInterface" target="_parent">
<polygon fill="none" stroke="black" points="596.021,-1341 447.979,-1341 447.979,-1305 596.021,-1305 596.021,-1341"/>
<text text-anchor="middle" x="522" y="-1318.6" font-family="Courier,monospace" font-size="11.00">HttpAdapterInterface</text>
</a>
</g>
</g>
<!-- \\FurryBear\\Http\\Adapter\\Curl&#45;&gt;\\FurryBear\\Http\\HttpAdapterInterface -->
<g id="edge25" class="edge"><title>\\FurryBear\\Http\\Adapter\\Curl&#45;&gt;\\FurryBear\\Http\\HttpAdapterInterface</title>
<path fill="none" stroke="black" stroke-dasharray="1,5" d="M743.567,-1323C710.976,-1323 654.023,-1323 606.155,-1323"/>
<polygon fill="none" stroke="black" points="606.09,-1319.5 596.09,-1323 606.09,-1326.5 606.09,-1319.5"/>
</g>
<!-- \\FurryBear\\Iterator\\SunlightFoundation\\PageIterator -->
<g id="node10" class="node"><title>\\FurryBear\\Iterator\\SunlightFoundation\\PageIterator</title>
<g id="a_node10"><a xlink:href="src.FurryBear.Iterator.SunlightFoundation.PageIterator.html" xlink:title="PageIterator" target="_parent">
<polygon fill="none" stroke="black" points="818.713,-202 723.287,-202 723.287,-166 818.713,-166 818.713,-202"/>
<text text-anchor="middle" x="771" y="-179.6" font-family="Courier,monospace" font-size="11.00">PageIterator</text>
</a>
</g>
</g>
<!-- \\Iterator -->
<g id="node34" class="node"><title>\\Iterator</title>
<ellipse fill="none" stroke="black" cx="522" cy="-18" rx="44.6347" ry="18"/>
<text text-anchor="middle" x="522" y="-12.4" font-family="Times,serif" font-size="14.00" fill="gray">\\Iterator</text>
</g>
<!-- \\FurryBear\\Iterator\\SunlightFoundation\\PageIterator&#45;&gt;\\Iterator -->
<g id="edge26" class="edge"><title>\\FurryBear\\Iterator\\SunlightFoundation\\PageIterator&#45;&gt;\\Iterator</title>
<path fill="none" stroke="black" stroke-dasharray="1,5" d="M723.104,-179.614C708.259,-176.457 692.482,-171.09 680,-162 630.644,-126.056 656.109,-82.5969 608,-45 597.988,-37.176 585.661,-31.5936 573.531,-27.6198"/>
<polygon fill="none" stroke="black" points="574.476,-24.2494 563.894,-24.7655 572.488,-30.9612 574.476,-24.2494"/>
</g>
<!-- \\FurryBear\\Output\\Strategy\\JsonToArray -->
<g id="node11" class="node"><title>\\FurryBear\\Output\\Strategy\\JsonToArray</title>
<g id="a_node11"><a xlink:href="src.FurryBear.Output.Strategy.JsonToArray.html" xlink:title="JsonToArray" target="_parent">
<polygon fill="none" stroke="black" points="815.113,-1223 726.887,-1223 726.887,-1187 815.113,-1187 815.113,-1223"/>
<text text-anchor="middle" x="771" y="-1200.6" font-family="Courier,monospace" font-size="11.00">JsonToArray</text>
</a>
</g>
</g>
<!-- \\FurryBear\\Output\\Strategy -->
<g id="node13" class="node"><title>\\FurryBear\\Output\\Strategy</title>
<g id="a_node13"><a xlink:href="src.FurryBear.Output.Strategy.html" xlink:title="Strategy" target="_parent">
<polygon fill="none" stroke="black" points="556.309,-1196 487.691,-1196 487.691,-1160 556.309,-1160 556.309,-1196"/>
<text text-anchor="middle" x="522" y="-1173.6" font-family="Courier,monospace" font-size="11.00">Strategy</text>
</a>
</g>
</g>
<!-- \\FurryBear\\Output\\Strategy\\JsonToArray&#45;&gt;\\FurryBear\\Output\\Strategy -->
<g id="edge27" class="edge"><title>\\FurryBear\\Output\\Strategy\\JsonToArray&#45;&gt;\\FurryBear\\Output\\Strategy</title>
<path fill="none" stroke="black" stroke-dasharray="1,5" d="M726.693,-1200.27C681.64,-1195.34 611.5,-1187.67 566.409,-1182.75"/>
<polygon fill="none" stroke="black" points="566.672,-1179.25 556.351,-1181.65 565.912,-1186.21 566.672,-1179.25"/>
</g>
<!-- \\FurryBear\\Output\\Strategy\\JsonToObject -->
<g id="node12" class="node"><title>\\FurryBear\\Output\\Strategy\\JsonToObject</title>
<g id="a_node12"><a xlink:href="src.FurryBear.Output.Strategy.JsonToObject.html" xlink:title="JsonToObject" target="_parent">
<polygon fill="none" stroke="black" points="818.713,-1169 723.287,-1169 723.287,-1133 818.713,-1133 818.713,-1169"/>
<text text-anchor="middle" x="771" y="-1146.6" font-family="Courier,monospace" font-size="11.00">JsonToObject</text>
</a>
</g>
</g>
<!-- \\FurryBear\\Output\\Strategy\\JsonToObject&#45;&gt;\\FurryBear\\Output\\Strategy -->
<g id="edge28" class="edge"><title>\\FurryBear\\Output\\Strategy\\JsonToObject&#45;&gt;\\FurryBear\\Output\\Strategy</title>
<path fill="none" stroke="black" stroke-dasharray="1,5" d="M723.251,-1156.11C678.192,-1161.04 610.551,-1168.43 566.587,-1173.24"/>
<polygon fill="none" stroke="black" points="566.055,-1169.77 556.494,-1174.34 566.815,-1176.73 566.055,-1169.77"/>
</g>
<!-- \\FurryBear\\Provider\\Source\\SunlightFoundation -->
<g id="node14" class="node"><title>\\FurryBear\\Provider\\Source\\SunlightFoundation</title>
<g id="a_node14"><a xlink:href="src.FurryBear.Provider.Source.SunlightFoundation.html" xlink:title="SunlightFoundation" target="_parent">
<polygon fill="none" stroke="black" points="838.319,-1051 703.681,-1051 703.681,-1015 838.319,-1015 838.319,-1051"/>
<text text-anchor="middle" x="771" y="-1028.6" font-family="Courier,monospace" font-size="11.00">SunlightFoundation</text>
</a>
</g>
</g>
<!-- \\FurryBear\\Provider\\AbstractProvider -->
<g id="node15" class="node"><title>\\FurryBear\\Provider\\AbstractProvider</title>
<g id="a_node15"><a xlink:href="src.FurryBear.Provider.AbstractProvider.html" xlink:title="«abstract»&lt;br/&gt;AbstractProvider" target="_parent">
<polygon fill="none" stroke="black" points="583,-1051 461,-1051 461,-1015 583,-1015 583,-1051"/>
<text text-anchor="start" x="489" y="-1034.5" font-family="Courier,monospace" font-size="11.00">«abstract»</text>
<text text-anchor="start" x="469.5" y="-1023.5" font-family="Courier,monospace" font-size="11.00">AbstractProvider</text>
</a>
</g>
</g>
<!-- \\FurryBear\\Provider\\Source\\SunlightFoundation&#45;&gt;\\FurryBear\\Provider\\AbstractProvider -->
<g id="edge7" class="edge"><title>\\FurryBear\\Provider\\Source\\SunlightFoundation&#45;&gt;\\FurryBear\\Provider\\AbstractProvider</title>
<path fill="none" stroke="black" d="M703.484,-1033C669.411,-1033 627.926,-1033 593.325,-1033"/>
<polygon fill="none" stroke="black" points="593.293,-1029.5 583.293,-1033 593.293,-1036.5 593.293,-1029.5"/>
</g>
<!-- \\FurryBear\\Proxy\\Curl -->
<g id="node16" class="node"><title>\\FurryBear\\Proxy\\Curl</title>
<g id="a_node16"><a xlink:href="src.FurryBear.Proxy.Curl.html" xlink:title="Curl" target="_parent">
<polygon fill="none" stroke="black" points="798,-962 744,-962 744,-926 798,-926 798,-962"/>
<text text-anchor="middle" x="771" y="-939.6" font-family="Courier,monospace" font-size="11.00">Curl</text>
</a>
</g>
</g>
<!-- \\FurryBear\\Proxy\\HttpRequest -->
<g id="node17" class="node"><title>\\FurryBear\\Proxy\\HttpRequest</title>
<g id="a_node17"><a xlink:href="src.FurryBear.Proxy.HttpRequest.html" xlink:title="HttpRequest" target="_parent">
<polygon fill="none" stroke="black" points="566.113,-962 477.887,-962 477.887,-926 566.113,-926 566.113,-962"/>
<text text-anchor="middle" x="522" y="-939.6" font-family="Courier,monospace" font-size="11.00">HttpRequest</text>
</a>
</g>
</g>
<!-- \\FurryBear\\Proxy\\Curl&#45;&gt;\\FurryBear\\Proxy\\HttpRequest -->
<g id="edge29" class="edge"><title>\\FurryBear\\Proxy\\Curl&#45;&gt;\\FurryBear\\Proxy\\HttpRequest</title>
<path fill="none" stroke="black" stroke-dasharray="1,5" d="M743.567,-944C703.864,-944 628.005,-944 576.461,-944"/>
<polygon fill="none" stroke="black" points="576.174,-940.5 566.174,-944 576.174,-947.5 576.174,-940.5"/>
</g>
<!-- \\FurryBear\\Resource\\SunlightFoundation\\BaseResource -->
<g id="node18" class="node"><title>\\FurryBear\\Resource\\SunlightFoundation\\BaseResource</title>
<g id="a_node18"><a xlink:href="src.FurryBear.Resource.SunlightFoundation.BaseResource.html" xlink:title="BaseResource" target="_parent">
<polygon fill="none" stroke="black" points="569.713,-609 474.287,-609 474.287,-573 569.713,-573 569.713,-609"/>
<text text-anchor="middle" x="522" y="-586.6" font-family="Courier,monospace" font-size="11.00">BaseResource</text>
</a>
</g>
</g>
<!-- \\FurryBear\\Resource\\AbstractResource -->
<g id="node29" class="node"><title>\\FurryBear\\Resource\\AbstractResource</title>
<g id="a_node29"><a xlink:href="src.FurryBear.Resource.AbstractResource.html" xlink:title="«abstract»&lt;br/&gt;AbstractResource" target="_parent">
<polygon fill="none" stroke="black" points="364,-609 242,-609 242,-573 364,-573 364,-609"/>
<text text-anchor="start" x="270" y="-592.5" font-family="Courier,monospace" font-size="11.00">«abstract»</text>
<text text-anchor="start" x="250.5" y="-581.5" font-family="Courier,monospace" font-size="11.00">AbstractResource</text>
</a>
</g>
</g>
<!-- \\FurryBear\\Resource\\SunlightFoundation\\BaseResource&#45;&gt;\\FurryBear\\Resource\\AbstractResource -->
<g id="edge8" class="edge"><title>\\FurryBear\\Resource\\SunlightFoundation\\BaseResource&#45;&gt;\\FurryBear\\Resource\\AbstractResource</title>
<path fill="none" stroke="black" d="M474.181,-591C445.175,-591 407.362,-591 374.748,-591"/>
<polygon fill="none" stroke="black" points="374.36,-587.5 364.36,-591 374.36,-594.5 374.36,-587.5"/>
</g>
<!-- \\FurryBear\\Resource\\SunlightFoundation\\Bills -->
<g id="node19" class="node"><title>\\FurryBear\\Resource\\SunlightFoundation\\Bills</title>
<g id="a_node19"><a xlink:href="src.FurryBear.Resource.SunlightFoundation.Bills.html" xlink:title="Bills" target="_parent">
<polygon fill="none" stroke="black" points="798,-852 744,-852 744,-816 798,-816 798,-852"/>
<text text-anchor="middle" x="771" y="-829.6" font-family="Courier,monospace" font-size="11.00">Bills</text>
</a>
</g>
</g>
<!-- \\FurryBear\\Resource\\SunlightFoundation\\Bills&#45;&gt;\\FurryBear\\Resource\\SunlightFoundation\\BaseResource -->
<g id="edge9" class="edge"><title>\\FurryBear\\Resource\\SunlightFoundation\\Bills&#45;&gt;\\FurryBear\\Resource\\SunlightFoundation\\BaseResource</title>
<path fill="none" stroke="black" d="M743.996,-830.75C724.881,-827.338 699.028,-820.495 680,-807 609.039,-756.675 557.751,-664.069 535.423,-618.207"/>
<polygon fill="none" stroke="black" points="538.571,-616.676 531.101,-609.162 532.255,-619.694 538.571,-616.676"/>
</g>
<!-- \\FurryBear\\Resource\\SunlightFoundation\\BillsSearch -->
<g id="node20" class="node"><title>\\FurryBear\\Resource\\SunlightFoundation\\BillsSearch</title>
<g id="a_node20"><a xlink:href="src.FurryBear.Resource.SunlightFoundation.BillsSearch.html" xlink:title="BillsSearch" target="_parent">
<polygon fill="none" stroke="black" points="815.113,-798 726.887,-798 726.887,-762 815.113,-762 815.113,-798"/>
<text text-anchor="middle" x="771" y="-775.6" font-family="Courier,monospace" font-size="11.00">BillsSearch</text>
</a>
</g>
</g>
<!-- \\FurryBear\\Resource\\SunlightFoundation\\BillsSearch&#45;&gt;\\FurryBear\\Resource\\SunlightFoundation\\BaseResource -->
<g id="edge10" class="edge"><title>\\FurryBear\\Resource\\SunlightFoundation\\BillsSearch&#45;&gt;\\FurryBear\\Resource\\SunlightFoundation\\BaseResource</title>
<path fill="none" stroke="black" d="M726.456,-771.705C711.057,-767.567 694.078,-761.559 680,-753 620.919,-717.08 568.661,-653.661 541.912,-617.752"/>
<polygon fill="none" stroke="black" points="544.41,-615.241 535.672,-609.249 538.767,-619.382 544.41,-615.241"/>
</g>
<!-- \\FurryBear\\Resource\\SunlightFoundation\\Committees -->
<g id="node21" class="node"><title>\\FurryBear\\Resource\\SunlightFoundation\\Committees</title>
<g id="a_node21"><a xlink:href="src.FurryBear.Resource.SunlightFoundation.Committees.html" xlink:title="Committees" target="_parent">
<polygon fill="none" stroke="black" points="812.011,-744 729.989,-744 729.989,-708 812.011,-708 812.011,-744"/>
<text text-anchor="middle" x="771" y="-721.6" font-family="Courier,monospace" font-size="11.00">Committees</text>
</a>
</g>
</g>
<!-- \\FurryBear\\Resource\\SunlightFoundation\\Committees&#45;&gt;\\FurryBear\\Resource\\SunlightFoundation\\BaseResource -->
<g id="edge11" class="edge"><title>\\FurryBear\\Resource\\SunlightFoundation\\Committees&#45;&gt;\\FurryBear\\Resource\\SunlightFoundation\\BaseResource</title>
<path fill="none" stroke="black" d="M729.573,-716.752C713.703,-712.388 695.593,-706.475 680,-699 632.279,-676.124 582.897,-639.669 552.561,-615.536"/>
<polygon fill="none" stroke="black" points="554.514,-612.616 544.527,-609.078 550.128,-618.071 554.514,-612.616"/>
</g>
<!-- \\FurryBear\\Resource\\SunlightFoundation\\DistrictsLocate -->
<g id="node22" class="node"><title>\\FurryBear\\Resource\\SunlightFoundation\\DistrictsLocate</title>
<g id="a_node22"><a xlink:href="src.FurryBear.Resource.SunlightFoundation.DistrictsLocate.html" xlink:title="DistrictsLocate" target="_parent">
<polygon fill="none" stroke="black" points="828.516,-690 713.484,-690 713.484,-654 828.516,-654 828.516,-690"/>
<text text-anchor="middle" x="771" y="-667.6" font-family="Courier,monospace" font-size="11.00">DistrictsLocate</text>
</a>
</g>
</g>
<!-- \\FurryBear\\Resource\\SunlightFoundation\\DistrictsLocate&#45;&gt;\\FurryBear\\Resource\\SunlightFoundation\\BaseResource -->
<g id="edge12" class="edge"><title>\\FurryBear\\Resource\\SunlightFoundation\\DistrictsLocate&#45;&gt;\\FurryBear\\Resource\\SunlightFoundation\\BaseResource</title>
<path fill="none" stroke="black" d="M713.242,-655.347C702.192,-651.999 690.715,-648.448 680,-645 646.597,-634.25 609.459,-621.512 579.693,-611.109"/>
<polygon fill="none" stroke="black" points="580.491,-607.68 569.896,-607.676 578.176,-614.286 580.491,-607.68"/>
</g>
<!-- \\FurryBear\\Resource\\SunlightFoundation\\FloorUpdates -->
<g id="node23" class="node"><title>\\FurryBear\\Resource\\SunlightFoundation\\FloorUpdates</title>
<g id="a_node23"><a xlink:href="src.FurryBear.Resource.SunlightFoundation.FloorUpdates.html" xlink:title="FloorUpdates" target="_parent">
<polygon fill="none" stroke="black" points="818.713,-636 723.287,-636 723.287,-600 818.713,-600 818.713,-636"/>
<text text-anchor="middle" x="771" y="-613.6" font-family="Courier,monospace" font-size="11.00">FloorUpdates</text>
</a>
</g>
</g>
<!-- \\FurryBear\\Resource\\SunlightFoundation\\FloorUpdates&#45;&gt;\\FurryBear\\Resource\\SunlightFoundation\\BaseResource -->
<g id="edge13" class="edge"><title>\\FurryBear\\Resource\\SunlightFoundation\\FloorUpdates&#45;&gt;\\FurryBear\\Resource\\SunlightFoundation\\BaseResource</title>
<path fill="none" stroke="black" d="M723.251,-612.89C682.594,-608.446 623.552,-601.992 580.108,-597.243"/>
<polygon fill="none" stroke="black" points="580.299,-593.743 569.978,-596.135 579.538,-600.701 580.299,-593.743"/>
</g>
<!-- \\FurryBear\\Resource\\SunlightFoundation\\Hearings -->
<g id="node24" class="node"><title>\\FurryBear\\Resource\\SunlightFoundation\\Hearings</title>
<g id="a_node24"><a xlink:href="src.FurryBear.Resource.SunlightFoundation.Hearings.html" xlink:title="Hearings" target="_parent">
<polygon fill="none" stroke="black" points="805.309,-582 736.691,-582 736.691,-546 805.309,-546 805.309,-582"/>
<text text-anchor="middle" x="771" y="-559.6" font-family="Courier,monospace" font-size="11.00">Hearings</text>
</a>
</g>
</g>
<!-- \\FurryBear\\Resource\\SunlightFoundation\\Hearings&#45;&gt;\\FurryBear\\Resource\\SunlightFoundation\\BaseResource -->
<g id="edge14" class="edge"><title>\\FurryBear\\Resource\\SunlightFoundation\\Hearings&#45;&gt;\\FurryBear\\Resource\\SunlightFoundation\\BaseResource</title>
<path fill="none" stroke="black" d="M736.688,-567.641C696.488,-572.036 628.256,-579.494 579.712,-584.801"/>
<polygon fill="none" stroke="black" points="579.23,-581.332 569.67,-585.898 579.991,-588.291 579.23,-581.332"/>
</g>
<!-- \\FurryBear\\Resource\\SunlightFoundation\\Legislators -->
<g id="node25" class="node"><title>\\FurryBear\\Resource\\SunlightFoundation\\Legislators</title>
<g id="a_node25"><a xlink:href="src.FurryBear.Resource.SunlightFoundation.Legislators.html" xlink:title="Legislators" target="_parent">
<polygon fill="none" stroke="black" points="815.113,-528 726.887,-528 726.887,-492 815.113,-492 815.113,-528"/>
<text text-anchor="middle" x="771" y="-505.6" font-family="Courier,monospace" font-size="11.00">Legislators</text>
</a>
</g>
</g>
<!-- \\FurryBear\\Resource\\SunlightFoundation\\Legislators&#45;&gt;\\FurryBear\\Resource\\SunlightFoundation\\BaseResource -->
<g id="edge15" class="edge"><title>\\FurryBear\\Resource\\SunlightFoundation\\Legislators&#45;&gt;\\FurryBear\\Resource\\SunlightFoundation\\BaseResource</title>
<path fill="none" stroke="black" d="M726.86,-522.562C711.974,-526.998 695.218,-532.102 680,-537 646.597,-547.75 609.459,-560.488 579.693,-570.891"/>
<polygon fill="none" stroke="black" points="578.176,-567.714 569.896,-574.324 580.491,-574.32 578.176,-567.714"/>
</g>
<!-- \\FurryBear\\Resource\\SunlightFoundation\\LegislatorsLocate -->
<g id="node26" class="node"><title>\\FurryBear\\Resource\\SunlightFoundation\\LegislatorsLocate</title>
<g id="a_node26"><a xlink:href="src.FurryBear.Resource.SunlightFoundation.LegislatorsLocate.html" xlink:title="LegislatorsLocate" target="_parent">
<polygon fill="none" stroke="black" points="835.218,-474 706.782,-474 706.782,-438 835.218,-438 835.218,-474"/>
<text text-anchor="middle" x="771" y="-451.6" font-family="Courier,monospace" font-size="11.00">LegislatorsLocate</text>
</a>
</g>
</g>
<!-- \\FurryBear\\Resource\\SunlightFoundation\\LegislatorsLocate&#45;&gt;\\FurryBear\\Resource\\SunlightFoundation\\BaseResource -->
<g id="edge16" class="edge"><title>\\FurryBear\\Resource\\SunlightFoundation\\LegislatorsLocate&#45;&gt;\\FurryBear\\Resource\\SunlightFoundation\\BaseResource</title>
<path fill="none" stroke="black" d="M706.598,-472.294C697.498,-475.413 688.385,-478.981 680,-483 632.279,-505.876 582.897,-542.331 552.561,-566.464"/>
<polygon fill="none" stroke="black" points="550.128,-563.929 544.527,-572.922 554.514,-569.384 550.128,-563.929"/>
</g>
<!-- \\FurryBear\\Resource\\SunlightFoundation\\UpcomingBills -->
<g id="node27" class="node"><title>\\FurryBear\\Resource\\SunlightFoundation\\UpcomingBills</title>
<g id="a_node27"><a xlink:href="src.FurryBear.Resource.SunlightFoundation.UpcomingBills.html" xlink:title="UpcomingBills" target="_parent">
<polygon fill="none" stroke="black" points="821.814,-420 720.186,-420 720.186,-384 821.814,-384 821.814,-420"/>
<text text-anchor="middle" x="771" y="-397.6" font-family="Courier,monospace" font-size="11.00">UpcomingBills</text>
</a>
</g>
</g>
<!-- \\FurryBear\\Resource\\SunlightFoundation\\UpcomingBills&#45;&gt;\\FurryBear\\Resource\\SunlightFoundation\\BaseResource -->
<g id="edge17" class="edge"><title>\\FurryBear\\Resource\\SunlightFoundation\\UpcomingBills&#45;&gt;\\FurryBear\\Resource\\SunlightFoundation\\BaseResource</title>
<path fill="none" stroke="black" d="M719.973,-412.125C706.406,-416.147 692.127,-421.627 680,-429 620.919,-464.92 568.661,-528.339 541.912,-564.248"/>
<polygon fill="none" stroke="black" points="538.767,-562.618 535.672,-572.751 544.41,-566.759 538.767,-562.618"/>
</g>
<!-- \\FurryBear\\Resource\\SunlightFoundation\\Votes -->
<g id="node28" class="node"><title>\\FurryBear\\Resource\\SunlightFoundation\\Votes</title>
<g id="a_node28"><a xlink:href="src.FurryBear.Resource.SunlightFoundation.Votes.html" xlink:title="Votes" target="_parent">
<polygon fill="none" stroke="black" points="798,-366 744,-366 744,-330 798,-330 798,-366"/>
<text text-anchor="middle" x="771" y="-343.6" font-family="Courier,monospace" font-size="11.00">Votes</text>
</a>
</g>
</g>
<!-- \\FurryBear\\Resource\\SunlightFoundation\\Votes&#45;&gt;\\FurryBear\\Resource\\SunlightFoundation\\BaseResource -->
<g id="edge18" class="edge"><title>\\FurryBear\\Resource\\SunlightFoundation\\Votes&#45;&gt;\\FurryBear\\Resource\\SunlightFoundation\\BaseResource</title>
<path fill="none" stroke="black" d="M743.996,-351.25C724.881,-354.662 699.028,-361.505 680,-375 609.039,-425.325 557.751,-517.931 535.423,-563.793"/>
<polygon fill="none" stroke="black" points="532.255,-562.306 531.101,-572.838 538.571,-565.324 532.255,-562.306"/>
</g>
<!-- \\IteratorAggregate -->
<g id="node35" class="node"><title>\\IteratorAggregate</title>
<ellipse fill="none" stroke="black" cx="85" cy="-591" rx="85.0676" ry="18"/>
<text text-anchor="middle" x="85" y="-585.4" font-family="Times,serif" font-size="14.00" fill="gray">\\IteratorAggregate</text>
</g>
<!-- \\FurryBear\\Resource\\AbstractResource&#45;&gt;\\IteratorAggregate -->
<g id="edge30" class="edge"><title>\\FurryBear\\Resource\\AbstractResource&#45;&gt;\\IteratorAggregate</title>
<path fill="none" stroke="black" stroke-dasharray="1,5" d="M241.832,-591C222.737,-591 201.142,-591 180.245,-591"/>
<polygon fill="none" stroke="black" points="180.057,-587.5 170.057,-591 180.057,-594.5 180.057,-587.5"/>
</g>
<!-- \\FurryBear\\Resource\\ResourceFactory -->
<g id="node30" class="node"><title>\\FurryBear\\Resource\\ResourceFactory</title>
<g id="a_node30"><a xlink:href="src.FurryBear.Resource.ResourceFactory.html" xlink:title="ResourceFactory" target="_parent">
<polygon fill="none" stroke="black" points="828.516,-312 713.484,-312 713.484,-276 828.516,-276 828.516,-312"/>
<text text-anchor="middle" x="771" y="-289.6" font-family="Courier,monospace" font-size="11.00">ResourceFactory</text>
</a>
</g>
</g>
<!-- \\FurryBear\\FurryBear -->
<g id="node31" class="node"><title>\\FurryBear\\FurryBear</title>
<g id="a_node31"><a xlink:href="src.FurryBear.FurryBear.html" xlink:title="FurryBear" target="_parent">
<polygon fill="none" stroke="black" points="808.911,-142 733.089,-142 733.089,-106 808.911,-106 808.911,-142"/>
<text text-anchor="middle" x="771" y="-119.6" font-family="Courier,monospace" font-size="11.00">FurryBear</text>
</a>
</g>
</g>
<!-- \\SplClassLoader -->
<g id="node32" class="node"><title>\\SplClassLoader</title>
<g id="a_node32"><a xlink:href="SplClassLoader.html" xlink:title="SplClassLoader" target="_parent">
<polygon fill="none" stroke="black" points="825.416,-1831 716.584,-1831 716.584,-1795 825.416,-1795 825.416,-1831"/>
<text text-anchor="middle" x="771" y="-1808.6" font-family="Courier,monospace" font-size="11.00">SplClassLoader</text>
</a>
</g>
</g>
</g>
</svg>
