<?xml version="1.0" encoding="UTF-8" standalone="no"?>
<!DOCTYPE svg PUBLIC "-//W3C//DTD SVG 1.1//EN"
 "http://www.w3.org/Graphics/SVG/1.1/DTD/svg11.dtd">
<!-- Generated by graphviz version 2.30.1 (20130302.2204)
 -->
<!-- Title: G Pages: 1 -->
<svg width="894pt" height="1984pt"
 viewBox="0.00 0.00 894.00 1984.00" xmlns="http://www.w3.org/2000/svg" xmlns:xlink="http://www.w3.org/1999/xlink">
<g id="graph0" class="graph" transform="scale(1 1) rotate(0) translate(4 1980)">
<title>G</title>
<polygon fill="white" stroke="white" points="-4,5 -4,-1980 891,-1980 891,5 -4,5"/>
<g id="clust1" class="cluster"><title>cluster_FurryBear</title>
<path fill="none" stroke="gray" d="M238,-98C238,-98 866,-98 866,-98 872,-98 878,-104 878,-110 878,-110 878,-1875 878,-1875 878,-1881 872,-1887 866,-1887 866,-1887 238,-1887 238,-1887 232,-1887 226,-1881 226,-1875 226,-1875 226,-110 226,-110 226,-104 232,-98 238,-98"/>
<text text-anchor="middle" x="552" y="-1872" font-family="Times,serif" font-size="11.00" fill="gray">FurryBear</text>
</g>
<g id="clust2" class="cluster"><title>cluster_FurryBear\Exception</title>
<path fill="none" stroke="gray" d="M458,-1515C458,-1515 858,-1515 858,-1515 864,-1515 870,-1521 870,-1527 870,-1527 870,-1846 870,-1846 870,-1852 864,-1858 858,-1858 858,-1858 458,-1858 458,-1858 452,-1858 446,-1852 446,-1846 446,-1846 446,-1527 446,-1527 446,-1521 452,-1515 458,-1515"/>
<text text-anchor="middle" x="658" y="-1843" font-family="Times,serif" font-size="11.00" fill="gray">Exception</text>
</g>
<g id="clust3" class="cluster"><title>cluster_FurryBear\Http</title>
<path fill="none" stroke="gray" d="M452,-1343C452,-1343 802,-1343 802,-1343 808,-1343 814,-1349 814,-1355 814,-1355 814,-1495 814,-1495 814,-1501 808,-1507 802,-1507 802,-1507 452,-1507 452,-1507 446,-1507 440,-1501 440,-1495 440,-1495 440,-1355 440,-1355 440,-1349 446,-1343 452,-1343"/>
<text text-anchor="middle" x="627" y="-1492" font-family="Times,serif" font-size="11.00" fill="gray">Http</text>
</g>
<g id="clust4" class="cluster"><title>cluster_FurryBear\Http\Adapter</title>
<path fill="none" stroke="gray" d="M748,-1351C748,-1351 794,-1351 794,-1351 800,-1351 806,-1357 806,-1363 806,-1363 806,-1466 806,-1466 806,-1472 800,-1478 794,-1478 794,-1478 748,-1478 748,-1478 742,-1478 736,-1472 736,-1466 736,-1466 736,-1363 736,-1363 736,-1357 742,-1351 748,-1351"/>
<text text-anchor="middle" x="771" y="-1463" font-family="Times,serif" font-size="11.00" fill="gray">Adapter</text>
</g>
<g id="clust6" class="cluster"><title>cluster_FurryBear\Iterator</title>
<path fill="none" stroke="gray" d="M719,-150C719,-150 823,-150 823,-150 829,-150 835,-156 835,-162 835,-162 835,-248 835,-248 835,-254 829,-260 823,-260 823,-260 719,-260 719,-260 713,-260 707,-254 707,-248 707,-248 707,-162 707,-162 707,-156 713,-150 719,-150"/>
<text text-anchor="middle" x="771" y="-245" font-family="Times,serif" font-size="11.00" fill="gray">Iterator</text>
</g>
<g id="clust7" class="cluster"><title>cluster_FurryBear\Iterator\SunlightFoundation</title>
<path fill="none" stroke="gray" d="M727,-158C727,-158 815,-158 815,-158 821,-158 827,-164 827,-170 827,-170 827,-219 827,-219 827,-225 821,-231 815,-231 815,-231 727,-231 727,-231 721,-231 715,-225 715,-219 715,-219 715,-170 715,-170 715,-164 721,-158 727,-158"/>
<text text-anchor="middle" x="771" y="-216" font-family="Times,serif" font-size="11.00" fill="gray">SunlightFoundation</text>
</g>
<g id="clust9" class="cluster"><title>cluster_FurryBear\Output</title>
<path fill="none" stroke="gray" d="M491,-1171C491,-1171 823,-1171 823,-1171 829,-1171 835,-1177 835,-1183 835,-1183 835,-1323 835,-1323 835,-1329 829,-1335 823,-1335 823,-1335 491,-1335 491,-1335 485,-1335 479,-1329 479,-1323 479,-1323 479,-1183 479,-1183 479,-1177 485,-1171 491,-1171"/>
<text text-anchor="middle" x="657" y="-1320" font-family="Times,serif" font-size="11.00" fill="gray">Output</text>
</g>
<g id="clust10" class="cluster"><title>cluster_FurryBear\Output\Strategy</title>
<path fill="none" stroke="gray" d="M727,-1179C727,-1179 815,-1179 815,-1179 821,-1179 827,-1185 827,-1191 827,-1191 827,-1294 827,-1294 827,-1300 821,-1306 815,-1306 815,-1306 727,-1306 727,-1306 721,-1306 715,-1300 715,-1294 715,-1294 715,-1191 715,-1191 715,-1185 721,-1179 727,-1179"/>
<text text-anchor="middle" x="771" y="-1291" font-family="Times,serif" font-size="11.00" fill="gray">Strategy</text>
</g>
<g id="clust12" class="cluster"><title>cluster_FurryBear\Provider</title>
<path fill="none" stroke="gray" d="M465,-1053C465,-1053 843,-1053 843,-1053 849,-1053 855,-1059 855,-1065 855,-1065 855,-1151 855,-1151 855,-1157 849,-1163 843,-1163 843,-1163 465,-1163 465,-1163 459,-1163 453,-1157 453,-1151 453,-1151 453,-1065 453,-1065 453,-1059 459,-1053 465,-1053"/>
<text text-anchor="middle" x="654" y="-1148" font-family="Times,serif" font-size="11.00" fill="gray">Provider</text>
</g>
<g id="clust13" class="cluster"><title>cluster_FurryBear\Provider\Source</title>
<path fill="none" stroke="gray" d="M707,-1061C707,-1061 835,-1061 835,-1061 841,-1061 847,-1067 847,-1073 847,-1073 847,-1122 847,-1122 847,-1128 841,-1134 835,-1134 835,-1134 707,-1134 707,-1134 701,-1134 695,-1128 695,-1122 695,-1122 695,-1073 695,-1073 695,-1067 701,-1061 707,-1061"/>
<text text-anchor="middle" x="771" y="-1119" font-family="Times,serif" font-size="11.00" fill="gray">Source</text>
</g>
<g id="clust15" class="cluster"><title>cluster_FurryBear\Proxy</title>
<path fill="none" stroke="gray" d="M481,-918C481,-918 794,-918 794,-918 800,-918 806,-924 806,-930 806,-930 806,-1033 806,-1033 806,-1039 800,-1045 794,-1045 794,-1045 481,-1045 481,-1045 475,-1045 469,-1039 469,-1033 469,-1033 469,-930 469,-930 469,-924 475,-918 481,-918"/>
<text text-anchor="middle" x="637.5" y="-1030" font-family="Times,serif" font-size="11.00" fill="gray">Proxy</text>
</g>
<g id="clust16" class="cluster"><title>cluster_FurryBear\Resource</title>
<path fill="none" stroke="gray" d="M246,-268C246,-268 839,-268 839,-268 845,-268 851,-274 851,-280 851,-280 851,-898 851,-898 851,-904 845,-910 839,-910 839,-910 246,-910 246,-910 240,-910 234,-904 234,-898 234,-898 234,-280 234,-280 234,-274 240,-268 246,-268"/>
<text text-anchor="middle" x="542.5" y="-895" font-family="Times,serif" font-size="11.00" fill="gray">Resource</text>
</g>
<g id="clust17" class="cluster"><title>cluster_FurryBear\Resource\SunlightFoundation</title>
<path fill="none" stroke="gray" d="M478,-322C478,-322 831,-322 831,-322 837,-322 843,-328 843,-334 843,-334 843,-869 843,-869 843,-875 837,-881 831,-881 831,-881 478,-881 478,-881 472,-881 466,-875 466,-869 466,-869 466,-334 466,-334 466,-328 472,-322 478,-322"/>
<text text-anchor="middle" x="654.5" y="-866" font-family="Times,serif" font-size="11.00" fill="gray">SunlightFoundation</text>
</g>
<g id="clust18" class="cluster"><title>cluster_global</title>
<path fill="none" stroke="gray" d="M721,-1895C721,-1895 821,-1895 821,-1895 827,-1895 833,-1901 833,-1907 833,-1907 833,-1956 833,-1956 833,-1962 827,-1968 821,-1968 821,-1968 721,-1968 721,-1968 715,-1968 709,-1962 709,-1956 709,-1956 709,-1907 709,-1907 709,-1901 715,-1895 721,-1895"/>
<text text-anchor="middle" x="771" y="-1953" font-family="Times,serif" font-size="11.00" fill="gray">global</text>
</g>
<!-- \\FurryBear\\Exception\\ExceptionInterface -->
<g id="node1" class="node"><title>\\FurryBear\\Exception\\ExceptionInterface</title>
<g id="a_node1"><a xlink:href="src.FurryBear.Exception.ExceptionInterface.html" xlink:title="ExceptionInterface" target="_parent">
<polygon fill="none" stroke="black" points="589.319,-1694 454.681,-1694 454.681,-1658 589.319,-1658 589.319,-1694"/>
<text text-anchor="middle" x="522" y="-1671.6" font-family="Courier,monospace" font-size="11.00">ExceptionInterface</text>
</a>
</g>
</g>
<!-- \\FurryBear\\Exception\\FileDoesNotExistException -->
<g id="node2" class="node"><title>\\FurryBear\\Exception\\FileDoesNotExistException</title>
<g id="a_node2"><a xlink:href="src.FurryBear.Exception.FileDoesNotExistException.html" xlink:title="FileDoesNotExistException" target="_parent">
<polygon fill="none" stroke="black" points="861.527,-1721 680.473,-1721 680.473,-1685 861.527,-1685 861.527,-1721"/>
<text text-anchor="middle" x="771" y="-1698.6" font-family="Courier,monospace" font-size="11.00">FileDoesNotExistException</text>
</a>
</g>
</g>
<!-- \\RuntimeException -->
<g id="node35" class="node"><title>\\RuntimeException</title>
<ellipse fill="none" stroke="black" cx="522" cy="-72" rx="86.2651" ry="18"/>
<text text-anchor="middle" x="522" y="-66.4" font-family="Times,serif" font-size="14.00" fill="gray">\RuntimeException</text>
</g>
<!-- \\FurryBear\\Exception\\FileDoesNotExistException&#45;&gt;\\RuntimeException -->
<g id="edge1" class="edge"><title>\\FurryBear\\Exception\\FileDoesNotExistException&#45;&gt;\\RuntimeException</title>
<path fill="none" stroke="black" d="M688.943,-1684.85C685.638,-1682.27 682.621,-1679.33 680,-1676 586.625,-1557.2 636.956,-466.3 608,-318 591.98,-235.952 554.721,-144.014 535.289,-99.3325"/>
<polygon fill="none" stroke="black" points="538.429,-97.7783 531.202,-90.0304 532.02,-100.594 538.429,-97.7783"/>
</g>
<!-- \\FurryBear\\Exception\\FileDoesNotExistException&#45;&gt;\\FurryBear\\Exception\\ExceptionInterface -->
<g id="edge19" class="edge"><title>\\FurryBear\\Exception\\FileDoesNotExistException&#45;&gt;\\FurryBear\\Exception\\ExceptionInterface</title>
<path fill="none" stroke="black" stroke-dasharray="1,5" d="M680.478,-1693.21C653.908,-1690.31 625.062,-1687.16 599.406,-1684.35"/>
<polygon fill="none" stroke="black" points="599.692,-1680.86 589.37,-1683.26 598.931,-1687.82 599.692,-1680.86"/>
</g>
<!-- \\FurryBear\\Exception\\InvalidJsonException -->
<g id="node3" class="node"><title>\\FurryBear\\Exception\\InvalidJsonException</title>
<g id="a_node3"><a xlink:href="src.FurryBear.Exception.InvalidJsonException.html" xlink:title="InvalidJsonException" target="_parent">
<polygon fill="none" stroke="black" points="845.021,-1667 696.979,-1667 696.979,-1631 845.021,-1631 845.021,-1667"/>
<text text-anchor="middle" x="771" y="-1644.6" font-family="Courier,monospace" font-size="11.00">InvalidJsonException</text>
</a>
</g>
</g>
<!-- \\FurryBear\\Exception\\InvalidJsonException&#45;&gt;\\RuntimeException -->
<g id="edge2" class="edge"><title>\\FurryBear\\Exception\\InvalidJsonException&#45;&gt;\\RuntimeException</title>
<path fill="none" stroke="black" d="M696.623,-1635.96C690.269,-1632.34 684.543,-1627.77 680,-1622 590.202,-1508.01 635.964,-460.39 608,-318 591.89,-235.969 554.671,-144.024 535.268,-99.3366"/>
<polygon fill="none" stroke="black" points="538.41,-97.7856 531.188,-90.0332 531.999,-100.597 538.41,-97.7856"/>
</g>
<!-- \\FurryBear\\Exception\\InvalidJsonException&#45;&gt;\\FurryBear\\Exception\\ExceptionInterface -->
<g id="edge20" class="edge"><title>\\FurryBear\\Exception\\InvalidJsonException&#45;&gt;\\FurryBear\\Exception\\ExceptionInterface</title>
<path fill="none" stroke="black" stroke-dasharray="1,5" d="M696.894,-1656.99C666.349,-1660.33 630.838,-1664.21 599.9,-1667.59"/>
<polygon fill="none" stroke="black" points="599.157,-1664.15 589.597,-1668.72 599.918,-1671.11 599.157,-1664.15"/>
</g>
<!-- \\FurryBear\\Exception\\NoOutputException -->
<g id="node4" class="node"><title>\\FurryBear\\Exception\\NoOutputException</title>
<g id="a_node4"><a xlink:href="src.FurryBear.Exception.NoOutputException.html" xlink:title="NoOutputException" target="_parent">
<polygon fill="none" stroke="black" points="835.218,-1613 706.782,-1613 706.782,-1577 835.218,-1577 835.218,-1613"/>
<text text-anchor="middle" x="771" y="-1590.6" font-family="Courier,monospace" font-size="11.00">NoOutputException</text>
</a>
</g>
</g>
<!-- \\FurryBear\\Exception\\NoOutputException&#45;&gt;\\RuntimeException -->
<g id="edge3" class="edge"><title>\\FurryBear\\Exception\\NoOutputException&#45;&gt;\\RuntimeException</title>
<path fill="none" stroke="black" d="M706.8,-1586.79C696.448,-1582.69 686.875,-1576.71 680,-1568 593.779,-1458.82 634.972,-454.479 608,-318 591.792,-235.989 554.617,-144.034 535.246,-99.341"/>
<polygon fill="none" stroke="black" points="538.389,-97.7935 531.173,-90.0362 531.976,-100.601 538.389,-97.7935"/>
</g>
<!-- \\FurryBear\\Exception\\NoOutputException&#45;&gt;\\FurryBear\\Exception\\ExceptionInterface -->
<g id="edge21" class="edge"><title>\\FurryBear\\Exception\\NoOutputException&#45;&gt;\\FurryBear\\Exception\\ExceptionInterface</title>
<path fill="none" stroke="black" stroke-dasharray="1,5" d="M708.414,-1613.12C698.881,-1616.03 689.162,-1619.05 680,-1622 647.953,-1632.31 612.468,-1644.46 583.353,-1654.61"/>
<polygon fill="none" stroke="black" points="582.022,-1651.37 573.738,-1657.98 584.332,-1657.98 582.022,-1651.37"/>
</g>
<!-- \\FurryBear\\Exception\\NoProviderException -->
<g id="node5" class="node"><title>\\FurryBear\\Exception\\NoProviderException</title>
<g id="a_node5"><a xlink:href="src.FurryBear.Exception.NoProviderException.html" xlink:title="NoProviderException" target="_parent">
<polygon fill="none" stroke="black" points="841.921,-1559 700.079,-1559 700.079,-1523 841.921,-1523 841.921,-1559"/>
<text text-anchor="middle" x="771" y="-1536.6" font-family="Courier,monospace" font-size="11.00">NoProviderException</text>
</a>
</g>
</g>
<!-- \\FurryBear\\Exception\\NoProviderException&#45;&gt;\\RuntimeException -->
<g id="edge4" class="edge"><title>\\FurryBear\\Exception\\NoProviderException&#45;&gt;\\RuntimeException</title>
<path fill="none" stroke="black" d="M726.112,-1522.92C708.719,-1513.41 690.415,-1499.93 680,-1482 549.847,-1257.89 658.784,-572.137 608,-318 591.619,-236.023 554.521,-144.054 535.205,-99.349"/>
<polygon fill="none" stroke="black" points="538.352,-97.8077 531.145,-90.0418 531.936,-100.607 538.352,-97.8077"/>
</g>
<!-- \\FurryBear\\Exception\\NoProviderException&#45;&gt;\\FurryBear\\Exception\\ExceptionInterface -->
<g id="edge22" class="edge"><title>\\FurryBear\\Exception\\NoProviderException&#45;&gt;\\FurryBear\\Exception\\ExceptionInterface</title>
<path fill="none" stroke="black" stroke-dasharray="1,5" d="M701.333,-1559.15C694.007,-1561.81 686.767,-1564.76 680,-1568 632.279,-1590.88 582.897,-1627.33 552.561,-1651.46"/>
<polygon fill="none" stroke="black" points="550.128,-1648.93 544.527,-1657.92 554.514,-1654.38 550.128,-1648.93"/>
</g>
<!-- \\FurryBear\\Exception\\NoResultException -->
<g id="node6" class="node"><title>\\FurryBear\\Exception\\NoResultException</title>
<g id="a_node6"><a xlink:href="src.FurryBear.Exception.NoResultException.html" xlink:title="NoResultException" target="_parent">
<polygon fill="none" stroke="black" points="835.218,-1829 706.782,-1829 706.782,-1793 835.218,-1793 835.218,-1829"/>
<text text-anchor="middle" x="771" y="-1806.6" font-family="Courier,monospace" font-size="11.00">NoResultException</text>
</a>
</g>
</g>
<!-- \\FurryBear\\Exception\\NoResultException&#45;&gt;\\RuntimeException -->
<g id="edge5" class="edge"><title>\\FurryBear\\Exception\\NoResultException&#45;&gt;\\RuntimeException</title>
<path fill="none" stroke="black" d="M706.74,-1802.83C696.393,-1798.73 686.838,-1792.73 680,-1784 579.469,-1655.59 638.941,-478.123 608,-318 592.14,-235.921 554.81,-143.997 535.326,-99.3254"/>
<polygon fill="none" stroke="black" points="538.463,-97.7653 531.228,-90.0254 532.057,-100.588 538.463,-97.7653"/>
</g>
<!-- \\FurryBear\\Exception\\NoResultException&#45;&gt;\\FurryBear\\Exception\\ExceptionInterface -->
<g id="edge23" class="edge"><title>\\FurryBear\\Exception\\NoResultException&#45;&gt;\\FurryBear\\Exception\\ExceptionInterface</title>
<path fill="none" stroke="black" stroke-dasharray="1,5" d="M706.598,-1794.71C697.498,-1791.59 688.385,-1788.02 680,-1784 632.279,-1761.12 582.897,-1724.67 552.561,-1700.54"/>
<polygon fill="none" stroke="black" points="554.514,-1697.62 544.527,-1694.08 550.128,-1703.07 554.514,-1697.62"/>
</g>
<!-- \\FurryBear\\Exception\\NotImplementedException -->
<g id="node7" class="node"><title>\\FurryBear\\Exception\\NotImplementedException</title>
<g id="a_node7"><a xlink:href="src.FurryBear.Exception.NotImplementedException.html" xlink:title="NotImplementedException" target="_parent">
<polygon fill="none" stroke="black" points="854.825,-1775 687.175,-1775 687.175,-1739 854.825,-1739 854.825,-1775"/>
<text text-anchor="middle" x="771" y="-1752.6" font-family="Courier,monospace" font-size="11.00">NotImplementedException</text>
</a>
</g>
</g>
<!-- \\FurryBear\\Exception\\NotImplementedException&#45;&gt;\\RuntimeException -->
<g id="edge6" class="edge"><title>\\FurryBear\\Exception\\NotImplementedException&#45;&gt;\\RuntimeException</title>
<path fill="none" stroke="black" d="M688.935,-1738.86C685.632,-1736.28 682.618,-1733.34 680,-1730 583.047,-1606.4 637.949,-472.212 608,-318 592.063,-235.936 554.767,-144.005 535.308,-99.3288"/>
<polygon fill="none" stroke="black" points="538.447,-97.7715 531.216,-90.0278 532.039,-100.591 538.447,-97.7715"/>
</g>
<!-- \\FurryBear\\Exception\\NotImplementedException&#45;&gt;\\FurryBear\\Exception\\ExceptionInterface -->
<g id="edge24" class="edge"><title>\\FurryBear\\Exception\\NotImplementedException&#45;&gt;\\FurryBear\\Exception\\ExceptionInterface</title>
<path fill="none" stroke="black" stroke-dasharray="1,5" d="M708.414,-1738.88C698.881,-1735.97 689.162,-1732.95 680,-1730 647.953,-1719.69 612.468,-1707.54 583.353,-1697.39"/>
<polygon fill="none" stroke="black" points="584.332,-1694.02 573.738,-1694.02 582.022,-1700.63 584.332,-1694.02"/>
</g>
<!-- \\FurryBear\\Http\\Adapter\\Buzz -->
<g id="node8" class="node"><title>\\FurryBear\\Http\\Adapter\\Buzz</title>
<g id="a_node8"><a xlink:href="src.FurryBear.Http.Adapter.Buzz.html" xlink:title="Buzz" target="_parent">
<polygon fill="none" stroke="black" points="798,-1449 744,-1449 744,-1413 798,-1413 798,-1449"/>
<text text-anchor="middle" x="771" y="-1426.6" font-family="Courier,monospace" font-size="11.00">Buzz</text>
</a>
</g>
</g>
<!-- \\FurryBear\\Http\\HttpAdapterInterface -->
<g id="node10" class="node"><title>\\FurryBear\\Http\\HttpAdapterInterface</title>
<g id="a_node10"><a xlink:href="src.FurryBear.Http.HttpAdapterInterface.html" xlink:title="HttpAdapterInterface" target="_parent">
<polygon fill="none" stroke="black" points="596.021,-1422 447.979,-1422 447.979,-1386 596.021,-1386 596.021,-1422"/>
<text text-anchor="middle" x="522" y="-1399.6" font-family="Courier,monospace" font-size="11.00">HttpAdapterInterface</text>
</a>
</g>
</g>
<!-- \\FurryBear\\Http\\Adapter\\Buzz&#45;&gt;\\FurryBear\\Http\\HttpAdapterInterface -->
<g id="edge25" class="edge"><title>\\FurryBear\\Http\\Adapter\\Buzz&#45;&gt;\\FurryBear\\Http\\HttpAdapterInterface</title>
<path fill="none" stroke="black" stroke-dasharray="1,5" d="M743.567,-1428.11C710.976,-1424.55 654.023,-1418.32 606.155,-1413.09"/>
<polygon fill="none" stroke="black" points="606.411,-1409.6 596.09,-1411.99 605.65,-1416.56 606.411,-1409.6"/>
</g>
<!-- \\FurryBear\\Http\\Adapter\\Curl -->
<g id="node9" class="node"><title>\\FurryBear\\Http\\Adapter\\Curl</title>
<g id="a_node9"><a xlink:href="src.FurryBear.Http.Adapter.Curl.html" xlink:title="Curl" target="_parent">
<polygon fill="none" stroke="black" points="798,-1395 744,-1395 744,-1359 798,-1359 798,-1395"/>
<text text-anchor="middle" x="771" y="-1372.6" font-family="Courier,monospace" font-size="11.00">Curl</text>
</a>
</g>
</g>
<!-- \\FurryBear\\Http\\Adapter\\Curl&#45;&gt;\\FurryBear\\Http\\HttpAdapterInterface -->
<g id="edge26" class="edge"><title>\\FurryBear\\Http\\Adapter\\Curl&#45;&gt;\\FurryBear\\Http\\HttpAdapterInterface</title>
<path fill="none" stroke="black" stroke-dasharray="1,5" d="M743.567,-1379.89C710.976,-1383.45 654.023,-1389.68 606.155,-1394.91"/>
<polygon fill="none" stroke="black" points="605.65,-1391.44 596.09,-1396.01 606.411,-1398.4 605.65,-1391.44"/>
</g>
<!-- \\FurryBear\\Iterator\\SunlightFoundation\\PageIterator -->
<g id="node11" class="node"><title>\\FurryBear\\Iterator\\SunlightFoundation\\PageIterator</title>
<g id="a_node11"><a xlink:href="src.FurryBear.Iterator.SunlightFoundation.PageIterator.html" xlink:title="PageIterator" target="_parent">
<polygon fill="none" stroke="black" points="818.713,-202 723.287,-202 723.287,-166 818.713,-166 818.713,-202"/>
<text text-anchor="middle" x="771" y="-179.6" font-family="Courier,monospace" font-size="11.00">PageIterator</text>
</a>
</g>
</g>
<!-- \\Iterator -->
<g id="node36" class="node"><title>\\Iterator</title>
<ellipse fill="none" stroke="black" cx="522" cy="-18" rx="44.6347" ry="18"/>
<text text-anchor="middle" x="522" y="-12.4" font-family="Times,serif" font-size="14.00" fill="gray">\\Iterator</text>
</g>
<!-- \\FurryBear\\Iterator\\SunlightFoundation\\PageIterator&#45;&gt;\\Iterator -->
<g id="edge27" class="edge"><title>\\FurryBear\\Iterator\\SunlightFoundation\\PageIterator&#45;&gt;\\Iterator</title>
<path fill="none" stroke="black" stroke-dasharray="1,5" d="M723.104,-179.614C708.259,-176.457 692.482,-171.09 680,-162 630.644,-126.056 656.109,-82.5969 608,-45 597.988,-37.176 585.661,-31.5936 573.531,-27.6198"/>
<polygon fill="none" stroke="black" points="574.476,-24.2494 563.894,-24.7655 572.488,-30.9612 574.476,-24.2494"/>
</g>
<!-- \\FurryBear\\Output\\Strategy\\JsonToArray -->
<g id="node12" class="node"><title>\\FurryBear\\Output\\Strategy\\JsonToArray</title>
<g id="a_node12"><a xlink:href="src.FurryBear.Output.Strategy.JsonToArray.html" xlink:title="JsonToArray" target="_parent">
<polygon fill="none" stroke="black" points="815.113,-1277 726.887,-1277 726.887,-1241 815.113,-1241 815.113,-1277"/>
<text text-anchor="middle" x="771" y="-1254.6" font-family="Courier,monospace" font-size="11.00">JsonToArray</text>
</a>
</g>
</g>
<!-- \\FurryBear\\Output\\Strategy -->
<g id="node14" class="node"><title>\\FurryBear\\Output\\Strategy</title>
<g id="a_node14"><a xlink:href="src.FurryBear.Output.Strategy.html" xlink:title="Strategy" target="_parent">
<polygon fill="none" stroke="black" points="556.309,-1250 487.691,-1250 487.691,-1214 556.309,-1214 556.309,-1250"/>
<text text-anchor="middle" x="522" y="-1227.6" font-family="Courier,monospace" font-size="11.00">Strategy</text>
</a>
</g>
</g>
<!-- \\FurryBear\\Output\\Strategy\\JsonToArray&#45;&gt;\\FurryBear\\Output\\Strategy -->
<g id="edge28" class="edge"><title>\\FurryBear\\Output\\Strategy\\JsonToArray&#45;&gt;\\FurryBear\\Output\\Strategy</title>
<path fill="none" stroke="black" stroke-dasharray="1,5" d="M726.693,-1254.27C681.64,-1249.34 611.5,-1241.67 566.409,-1236.75"/>
<polygon fill="none" stroke="black" points="566.672,-1233.25 556.351,-1235.65 565.912,-1240.21 566.672,-1233.25"/>
</g>
<!-- \\FurryBear\\Output\\Strategy\\JsonToObject -->
<g id="node13" class="node"><title>\\FurryBear\\Output\\Strategy\\JsonToObject</title>
<g id="a_node13"><a xlink:href="src.FurryBear.Output.Strategy.JsonToObject.html" xlink:title="JsonToObject" target="_parent">
<polygon fill="none" stroke="black" points="818.713,-1223 723.287,-1223 723.287,-1187 818.713,-1187 818.713,-1223"/>
<text text-anchor="middle" x="771" y="-1200.6" font-family="Courier,monospace" font-size="11.00">JsonToObject</text>
</a>
</g>
</g>
<!-- \\FurryBear\\Output\\Strategy\\JsonToObject&#45;&gt;\\FurryBear\\Output\\Strategy -->
<g id="edge29" class="edge"><title>\\FurryBear\\Output\\Strategy\\JsonToObject&#45;&gt;\\FurryBear\\Output\\Strategy</title>
<path fill="none" stroke="black" stroke-dasharray="1,5" d="M723.251,-1210.11C678.192,-1215.04 610.551,-1222.43 566.587,-1227.24"/>
<polygon fill="none" stroke="black" points="566.055,-1223.77 556.494,-1228.34 566.815,-1230.73 566.055,-1223.77"/>
</g>
<!-- \\FurryBear\\Provider\\Source\\SunlightFoundation -->
<g id="node15" class="node"><title>\\FurryBear\\Provider\\Source\\SunlightFoundation</title>
<g id="a_node15"><a xlink:href="src.FurryBear.Provider.Source.SunlightFoundation.html" xlink:title="SunlightFoundation" target="_parent">
<polygon fill="none" stroke="black" points="838.319,-1105 703.681,-1105 703.681,-1069 838.319,-1069 838.319,-1105"/>
<text text-anchor="middle" x="771" y="-1082.6" font-family="Courier,monospace" font-size="11.00">SunlightFoundation</text>
</a>
</g>
</g>
<!-- \\FurryBear\\Provider\\AbstractProvider -->
<g id="node16" class="node"><title>\\FurryBear\\Provider\\AbstractProvider</title>
<g id="a_node16"><a xlink:href="src.FurryBear.Provider.AbstractProvider.html" xlink:title="«abstract»&lt;br/&gt;AbstractProvider" target="_parent">
<polygon fill="none" stroke="black" points="583,-1105 461,-1105 461,-1069 583,-1069 583,-1105"/>
<text text-anchor="start" x="489" y="-1088.5" font-family="Courier,monospace" font-size="11.00">«abstract»</text>
<text text-anchor="start" x="469.5" y="-1077.5" font-family="Courier,monospace" font-size="11.00">AbstractProvider</text>
</a>
</g>
</g>
<!-- \\FurryBear\\Provider\\Source\\SunlightFoundation&#45;&gt;\\FurryBear\\Provider\\AbstractProvider -->
<g id="edge7" class="edge"><title>\\FurryBear\\Provider\\Source\\SunlightFoundation&#45;&gt;\\FurryBear\\Provider\\AbstractProvider</title>
<path fill="none" stroke="black" d="M703.484,-1087C669.411,-1087 627.926,-1087 593.325,-1087"/>
<polygon fill="none" stroke="black" points="593.293,-1083.5 583.293,-1087 593.293,-1090.5 593.293,-1083.5"/>
</g>
<!-- \\FurryBear\\Proxy\\Buzz -->
<g id="node17" class="node"><title>\\FurryBear\\Proxy\\Buzz</title>
<g id="a_node17"><a xlink:href="src.FurryBear.Proxy.Buzz.html" xlink:title="Buzz" target="_parent">
<polygon fill="none" stroke="black" points="798,-1016 744,-1016 744,-980 798,-980 798,-1016"/>
<text text-anchor="middle" x="771" y="-993.6" font-family="Courier,monospace" font-size="11.00">Buzz</text>
</a>
</g>
</g>
<!-- \\FurryBear\\Proxy\\HttpRequest -->
<g id="node19" class="node"><title>\\FurryBear\\Proxy\\HttpRequest</title>
<g id="a_node19"><a xlink:href="src.FurryBear.Proxy.HttpRequest.html" xlink:title="HttpRequest" target="_parent">
<polygon fill="none" stroke="black" points="566.113,-989 477.887,-989 477.887,-953 566.113,-953 566.113,-989"/>
<text text-anchor="middle" x="522" y="-966.6" font-family="Courier,monospace" font-size="11.00">HttpRequest</text>
</a>
</g>
</g>
<!-- \\FurryBear\\Proxy\\Buzz&#45;&gt;\\FurryBear\\Proxy\\HttpRequest -->
<g id="edge30" class="edge"><title>\\FurryBear\\Proxy\\Buzz&#45;&gt;\\FurryBear\\Proxy\\HttpRequest</title>
<path fill="none" stroke="black" stroke-dasharray="1,5" d="M743.567,-995.111C703.781,-990.761 627.688,-982.444 576.139,-976.809"/>
<polygon fill="none" stroke="black" points="576.495,-973.327 566.174,-975.719 575.735,-980.285 576.495,-973.327"/>
</g>
<!-- \\FurryBear\\Proxy\\Curl -->
<g id="node18" class="node"><title>\\FurryBear\\Proxy\\Curl</title>
<g id="a_node18"><a xlink:href="src.FurryBear.Proxy.Curl.html" xlink:title="Curl" target="_parent">
<polygon fill="none" stroke="black" points="798,-962 744,-962 744,-926 798,-926 798,-962"/>
<text text-anchor="middle" x="771" y="-939.6" font-family="Courier,monospace" font-size="11.00">Curl</text>
</a>
</g>
</g>
<!-- \\FurryBear\\Proxy\\Curl&#45;&gt;\\FurryBear\\Proxy\\HttpRequest -->
<g id="edge31" class="edge"><title>\\FurryBear\\Proxy\\Curl&#45;&gt;\\FurryBear\\Proxy\\HttpRequest</title>
<path fill="none" stroke="black" stroke-dasharray="1,5" d="M743.567,-946.889C703.781,-951.239 627.688,-959.556 576.139,-965.191"/>
<polygon fill="none" stroke="black" points="575.735,-961.715 566.174,-966.281 576.495,-968.673 575.735,-961.715"/>
</g>
<!-- \\FurryBear\\Resource\\SunlightFoundation\\BaseResource -->
<g id="node20" class="node"><title>\\FurryBear\\Resource\\SunlightFoundation\\BaseResource</title>
<g id="a_node20"><a xlink:href="src.FurryBear.Resource.SunlightFoundation.BaseResource.html" xlink:title="BaseResource" target="_parent">
<polygon fill="none" stroke="black" points="569.713,-609 474.287,-609 474.287,-573 569.713,-573 569.713,-609"/>
<text text-anchor="middle" x="522" y="-586.6" font-family="Courier,monospace" font-size="11.00">BaseResource</text>
</a>
</g>
</g>
<!-- \\FurryBear\\Resource\\AbstractResource -->
<g id="node31" class="node"><title>\\FurryBear\\Resource\\AbstractResource</title>
<g id="a_node31"><a xlink:href="src.FurryBear.Resource.AbstractResource.html" xlink:title="«abstract»&lt;br/&gt;AbstractResource" target="_parent">
<polygon fill="none" stroke="black" points="364,-609 242,-609 242,-573 364,-573 364,-609"/>
<text text-anchor="start" x="270" y="-592.5" font-family="Courier,monospace" font-size="11.00">«abstract»</text>
<text text-anchor="start" x="250.5" y="-581.5" font-family="Courier,monospace" font-size="11.00">AbstractResource</text>
</a>
</g>
</g>
<!-- \\FurryBear\\Resource\\SunlightFoundation\\BaseResource&#45;&gt;\\FurryBear\\Resource\\AbstractResource -->
<g id="edge8" class="edge"><title>\\FurryBear\\Resource\\SunlightFoundation\\BaseResource&#45;&gt;\\FurryBear\\Resource\\AbstractResource</title>
<path fill="none" stroke="black" d="M474.181,-591C445.175,-591 407.362,-591 374.748,-591"/>
<polygon fill="none" stroke="black" points="374.36,-587.5 364.36,-591 374.36,-594.5 374.36,-587.5"/>
</g>
<!-- \\FurryBear\\Resource\\SunlightFoundation\\Bills -->
<g id="node21" class="node"><title>\\FurryBear\\Resource\\SunlightFoundation\\Bills</title>
<g id="a_node21"><a xlink:href="src.FurryBear.Resource.SunlightFoundation.Bills.html" xlink:title="Bills" target="_parent">
<polygon fill="none" stroke="black" points="798,-636 744,-636 744,-600 798,-600 798,-636"/>
<text text-anchor="middle" x="771" y="-613.6" font-family="Courier,monospace" font-size="11.00">Bills</text>
</a>
</g>
</g>
<!-- \\FurryBear\\Resource\\SunlightFoundation\\Bills&#45;&gt;\\FurryBear\\Resource\\SunlightFoundation\\BaseResource -->
<g id="edge9" class="edge"><title>\\FurryBear\\Resource\\SunlightFoundation\\Bills&#45;&gt;\\FurryBear\\Resource\\SunlightFoundation\\BaseResource</title>
<path fill="none" stroke="black" d="M743.567,-615.111C704.714,-610.864 631.239,-602.832 579.807,-597.21"/>
<polygon fill="none" stroke="black" points="580.152,-593.727 569.831,-596.119 579.391,-600.685 580.152,-593.727"/>
</g>
<!-- \\FurryBear\\Resource\\SunlightFoundation\\BillsSearch -->
<g id="node22" class="node"><title>\\FurryBear\\Resource\\SunlightFoundation\\BillsSearch</title>
<g id="a_node22"><a xlink:href="src.FurryBear.Resource.SunlightFoundation.BillsSearch.html" xlink:title="BillsSearch" target="_parent">
<polygon fill="none" stroke="black" points="815.113,-582 726.887,-582 726.887,-546 815.113,-546 815.113,-582"/>
<text text-anchor="middle" x="771" y="-559.6" font-family="Courier,monospace" font-size="11.00">BillsSearch</text>
</a>
</g>
</g>
<!-- \\FurryBear\\Resource\\SunlightFoundation\\BillsSearch&#45;&gt;\\FurryBear\\Resource\\SunlightFoundation\\BaseResource -->
<g id="edge10" class="edge"><title>\\FurryBear\\Resource\\SunlightFoundation\\BillsSearch&#45;&gt;\\FurryBear\\Resource\\SunlightFoundation\\BaseResource</title>
<path fill="none" stroke="black" d="M726.693,-568.734C685.875,-573.196 624.467,-579.908 579.749,-584.797"/>
<polygon fill="none" stroke="black" points="579.181,-581.338 569.621,-585.904 579.942,-588.296 579.181,-581.338"/>
</g>
<!-- \\FurryBear\\Resource\\SunlightFoundation\\Committees -->
<g id="node23" class="node"><title>\\FurryBear\\Resource\\SunlightFoundation\\Committees</title>
<g id="a_node23"><a xlink:href="src.FurryBear.Resource.SunlightFoundation.Committees.html" xlink:title="Committees" target="_parent">
<polygon fill="none" stroke="black" points="812.011,-528 729.989,-528 729.989,-492 812.011,-492 812.011,-528"/>
<text text-anchor="middle" x="771" y="-505.6" font-family="Courier,monospace" font-size="11.00">Committees</text>
</a>
</g>
</g>
<!-- \\FurryBear\\Resource\\SunlightFoundation\\Committees&#45;&gt;\\FurryBear\\Resource\\SunlightFoundation\\BaseResource -->
<g id="edge11" class="edge"><title>\\FurryBear\\Resource\\SunlightFoundation\\Committees&#45;&gt;\\FurryBear\\Resource\\SunlightFoundation\\BaseResource</title>
<path fill="none" stroke="black" d="M729.572,-521.755C714.031,-526.372 696.15,-531.802 680,-537 646.597,-547.75 609.459,-560.488 579.693,-570.891"/>
<polygon fill="none" stroke="black" points="578.176,-567.714 569.896,-574.324 580.491,-574.32 578.176,-567.714"/>
</g>
<!-- \\FurryBear\\Resource\\SunlightFoundation\\DistrictsLocate -->
<g id="node24" class="node"><title>\\FurryBear\\Resource\\SunlightFoundation\\DistrictsLocate</title>
<g id="a_node24"><a xlink:href="src.FurryBear.Resource.SunlightFoundation.DistrictsLocate.html" xlink:title="DistrictsLocate" target="_parent">
<polygon fill="none" stroke="black" points="828.516,-474 713.484,-474 713.484,-438 828.516,-438 828.516,-474"/>
<text text-anchor="middle" x="771" y="-451.6" font-family="Courier,monospace" font-size="11.00">DistrictsLocate</text>
</a>
</g>
</g>
<!-- \\FurryBear\\Resource\\SunlightFoundation\\DistrictsLocate&#45;&gt;\\FurryBear\\Resource\\SunlightFoundation\\BaseResource -->
<g id="edge12" class="edge"><title>\\FurryBear\\Resource\\SunlightFoundation\\DistrictsLocate&#45;&gt;\\FurryBear\\Resource\\SunlightFoundation\\BaseResource</title>
<path fill="none" stroke="black" d="M713.291,-470.078C702.018,-473.687 690.444,-477.993 680,-483 632.279,-505.876 582.897,-542.331 552.561,-566.464"/>
<polygon fill="none" stroke="black" points="550.128,-563.929 544.527,-572.922 554.514,-569.384 550.128,-563.929"/>
</g>
<!-- \\FurryBear\\Resource\\SunlightFoundation\\FloorUpdates -->
<g id="node25" class="node"><title>\\FurryBear\\Resource\\SunlightFoundation\\FloorUpdates</title>
<g id="a_node25"><a xlink:href="src.FurryBear.Resource.SunlightFoundation.FloorUpdates.html" xlink:title="FloorUpdates" target="_parent">
<polygon fill="none" stroke="black" points="818.713,-420 723.287,-420 723.287,-384 818.713,-384 818.713,-420"/>
<text text-anchor="middle" x="771" y="-397.6" font-family="Courier,monospace" font-size="11.00">FloorUpdates</text>
</a>
</g>
</g>
<!-- \\FurryBear\\Resource\\SunlightFoundation\\FloorUpdates&#45;&gt;\\FurryBear\\Resource\\SunlightFoundation\\BaseResource -->
<g id="edge13" class="edge"><title>\\FurryBear\\Resource\\SunlightFoundation\\FloorUpdates&#45;&gt;\\FurryBear\\Resource\\SunlightFoundation\\BaseResource</title>
<path fill="none" stroke="black" d="M723.233,-411.182C708.717,-415.278 693.103,-421.034 680,-429 620.919,-464.92 568.661,-528.339 541.912,-564.248"/>
<polygon fill="none" stroke="black" points="538.767,-562.618 535.672,-572.751 544.41,-566.759 538.767,-562.618"/>
</g>
<!-- \\FurryBear\\Resource\\SunlightFoundation\\Hearings -->
<g id="node26" class="node"><title>\\FurryBear\\Resource\\SunlightFoundation\\Hearings</title>
<g id="a_node26"><a xlink:href="src.FurryBear.Resource.SunlightFoundation.Hearings.html" xlink:title="Hearings" target="_parent">
<polygon fill="none" stroke="black" points="805.309,-366 736.691,-366 736.691,-330 805.309,-330 805.309,-366"/>
<text text-anchor="middle" x="771" y="-343.6" font-family="Courier,monospace" font-size="11.00">Hearings</text>
</a>
</g>
</g>
<!-- \\FurryBear\\Resource\\SunlightFoundation\\Hearings&#45;&gt;\\FurryBear\\Resource\\SunlightFoundation\\BaseResource -->
<g id="edge14" class="edge"><title>\\FurryBear\\Resource\\SunlightFoundation\\Hearings&#45;&gt;\\FurryBear\\Resource\\SunlightFoundation\\BaseResource</title>
<path fill="none" stroke="black" d="M736.485,-352.708C718.481,-356.49 696.633,-363.204 680,-375 609.039,-425.325 557.751,-517.931 535.423,-563.793"/>
<polygon fill="none" stroke="black" points="532.255,-562.306 531.101,-572.838 538.571,-565.324 532.255,-562.306"/>
</g>
<!-- \\FurryBear\\Resource\\SunlightFoundation\\Legislators -->
<g id="node27" class="node"><title>\\FurryBear\\Resource\\SunlightFoundation\\Legislators</title>
<g id="a_node27"><a xlink:href="src.FurryBear.Resource.SunlightFoundation.Legislators.html" xlink:title="Legislators" target="_parent">
<polygon fill="none" stroke="black" points="815.113,-852 726.887,-852 726.887,-816 815.113,-816 815.113,-852"/>
<text text-anchor="middle" x="771" y="-829.6" font-family="Courier,monospace" font-size="11.00">Legislators</text>
</a>
</g>
</g>
<!-- \\FurryBear\\Resource\\SunlightFoundation\\Legislators&#45;&gt;\\FurryBear\\Resource\\SunlightFoundation\\BaseResource -->
<g id="edge15" class="edge"><title>\\FurryBear\\Resource\\SunlightFoundation\\Legislators&#45;&gt;\\FurryBear\\Resource\\SunlightFoundation\\BaseResource</title>
<path fill="none" stroke="black" d="M726.671,-827.011C710.952,-822.989 693.706,-816.72 680,-807 609.039,-756.675 557.751,-664.069 535.423,-618.207"/>
<polygon fill="none" stroke="black" points="538.571,-616.676 531.101,-609.162 532.255,-619.694 538.571,-616.676"/>
</g>
<!-- \\FurryBear\\Resource\\SunlightFoundation\\LegislatorsLocate -->
<g id="node28" class="node"><title>\\FurryBear\\Resource\\SunlightFoundation\\LegislatorsLocate</title>
<g id="a_node28"><a xlink:href="src.FurryBear.Resource.SunlightFoundation.LegislatorsLocate.html" xlink:title="LegislatorsLocate" target="_parent">
<polygon fill="none" stroke="black" points="835.218,-798 706.782,-798 706.782,-762 835.218,-762 835.218,-798"/>
<text text-anchor="middle" x="771" y="-775.6" font-family="Courier,monospace" font-size="11.00">LegislatorsLocate</text>
</a>
</g>
</g>
<!-- \\FurryBear\\Resource\\SunlightFoundation\\LegislatorsLocate&#45;&gt;\\FurryBear\\Resource\\SunlightFoundation\\BaseResource -->
<g id="edge16" class="edge"><title>\\FurryBear\\Resource\\SunlightFoundation\\LegislatorsLocate&#45;&gt;\\FurryBear\\Resource\\SunlightFoundation\\BaseResource</title>
<path fill="none" stroke="black" d="M706.748,-765.524C697.438,-762.129 688.224,-758 680,-753 620.919,-717.08 568.661,-653.661 541.912,-617.752"/>
<polygon fill="none" stroke="black" points="544.41,-615.241 535.672,-609.249 538.767,-619.382 544.41,-615.241"/>
</g>
<!-- \\FurryBear\\Resource\\SunlightFoundation\\UpcomingBills -->
<g id="node29" class="node"><title>\\FurryBear\\Resource\\SunlightFoundation\\UpcomingBills</title>
<g id="a_node29"><a xlink:href="src.FurryBear.Resource.SunlightFoundation.UpcomingBills.html" xlink:title="UpcomingBills" target="_parent">
<polygon fill="none" stroke="black" points="821.814,-744 720.186,-744 720.186,-708 821.814,-708 821.814,-744"/>
<text text-anchor="middle" x="771" y="-721.6" font-family="Courier,monospace" font-size="11.00">UpcomingBills</text>
</a>
</g>
</g>
<!-- \\FurryBear\\Resource\\SunlightFoundation\\UpcomingBills&#45;&gt;\\FurryBear\\Resource\\SunlightFoundation\\BaseResource -->
<g id="edge17" class="edge"><title>\\FurryBear\\Resource\\SunlightFoundation\\UpcomingBills&#45;&gt;\\FurryBear\\Resource\\SunlightFoundation\\BaseResource</title>
<path fill="none" stroke="black" d="M719.914,-713.976C706.626,-709.984 692.504,-704.994 680,-699 632.279,-676.124 582.897,-639.669 552.561,-615.536"/>
<polygon fill="none" stroke="black" points="554.514,-612.616 544.527,-609.078 550.128,-618.071 554.514,-612.616"/>
</g>
<!-- \\FurryBear\\Resource\\SunlightFoundation\\Votes -->
<g id="node30" class="node"><title>\\FurryBear\\Resource\\SunlightFoundation\\Votes</title>
<g id="a_node30"><a xlink:href="src.FurryBear.Resource.SunlightFoundation.Votes.html" xlink:title="Votes" target="_parent">
<polygon fill="none" stroke="black" points="798,-690 744,-690 744,-654 798,-654 798,-690"/>
<text text-anchor="middle" x="771" y="-667.6" font-family="Courier,monospace" font-size="11.00">Votes</text>
</a>
</g>
</g>
<!-- \\FurryBear\\Resource\\SunlightFoundation\\Votes&#45;&gt;\\FurryBear\\Resource\\SunlightFoundation\\BaseResource -->
<g id="edge18" class="edge"><title>\\FurryBear\\Resource\\SunlightFoundation\\Votes&#45;&gt;\\FurryBear\\Resource\\SunlightFoundation\\BaseResource</title>
<path fill="none" stroke="black" d="M743.922,-664.475C725.908,-659.204 701.429,-651.897 680,-645 646.597,-634.25 609.459,-621.512 579.693,-611.109"/>
<polygon fill="none" stroke="black" points="580.491,-607.68 569.896,-607.676 578.176,-614.286 580.491,-607.68"/>
</g>
<!-- \\IteratorAggregate -->
<g id="node37" class="node"><title>\\IteratorAggregate</title>
<ellipse fill="none" stroke="black" cx="85" cy="-591" rx="85.0676" ry="18"/>
<text text-anchor="middle" x="85" y="-585.4" font-family="Times,serif" font-size="14.00" fill="gray">\\IteratorAggregate</text>
</g>
<!-- \\FurryBear\\Resource\\AbstractResource&#45;&gt;\\IteratorAggregate -->
<g id="edge32" class="edge"><title>\\FurryBear\\Resource\\AbstractResource&#45;&gt;\\IteratorAggregate</title>
<path fill="none" stroke="black" stroke-dasharray="1,5" d="M241.832,-591C222.737,-591 201.142,-591 180.245,-591"/>
<polygon fill="none" stroke="black" points="180.057,-587.5 170.057,-591 180.057,-594.5 180.057,-587.5"/>
</g>
<!-- \\FurryBear\\Resource\\ResourceFactory -->
<g id="node32" class="node"><title>\\FurryBear\\Resource\\ResourceFactory</title>
<g id="a_node32"><a xlink:href="src.FurryBear.Resource.ResourceFactory.html" xlink:title="ResourceFactory" target="_parent">
<polygon fill="none" stroke="black" points="828.516,-312 713.484,-312 713.484,-276 828.516,-276 828.516,-312"/>
<text text-anchor="middle" x="771" y="-289.6" font-family="Courier,monospace" font-size="11.00">ResourceFactory</text>
</a>
</g>
</g>
<!-- \\FurryBear\\FurryBear -->
<g id="node33" class="node"><title>\\FurryBear\\FurryBear</title>
<g id="a_node33"><a xlink:href="src.FurryBear.FurryBear.html" xlink:title="FurryBear" target="_parent">
<polygon fill="none" stroke="black" points="808.911,-142 733.089,-142 733.089,-106 808.911,-106 808.911,-142"/>
<text text-anchor="middle" x="771" y="-119.6" font-family="Courier,monospace" font-size="11.00">FurryBear</text>
</a>
</g>
</g>
<!-- \\SplClassLoader -->
<g id="node34" class="node"><title>\\SplClassLoader</title>
<g id="a_node34"><a xlink:href="SplClassLoader.html" xlink:title="SplClassLoader" target="_parent">
<polygon fill="none" stroke="black" points="825.416,-1939 716.584,-1939 716.584,-1903 825.416,-1903 825.416,-1939"/>
<text text-anchor="middle" x="771" y="-1916.6" font-family="Courier,monospace" font-size="11.00">SplClassLoader</text>
</a>
</g>
</g>
</g>
</svg>
